<?xml version="1.0" encoding="UTF-8"?>
<svg id="Layer_1" data-name="Layer 1" xmlns="http://www.w3.org/2000/svg" xmlns:xlink="http://www.w3.org/1999/xlink" viewBox="0 0 68.04 68.67">
  <defs>
    <style>
      .cls-1 {
        fill: #221e1f;
      }

      .cls-2 {
        fill: url(#_무제_그라디언트_28);
      }

      .cls-3 {
        fill: url(#_무제_그라디언트_27);
      }

      .cls-4, .cls-5 {
        fill: none;
      }

      .cls-6 {
        fill: url(#_무제_그라디언트_26);
      }

      .cls-7 {
        fill: url(#_무제_그라디언트_25);
      }

      .cls-5 {
        stroke: #221e1f;
        stroke-linecap: round;
        stroke-miterlimit: 10;
        stroke-width: 2px;
      }

      .cls-8 {
        fill: #002a67;
      }
    </style>
    <radialGradient id="_무제_그라디언트_25" data-name="무제 그라디언트 25" cx="51.61" cy="-528.88" fx="51.61" fy="-528.88" r="5.01" gradientTransform="translate(0 -480.51) scale(1 -1)" gradientUnits="userSpaceOnUse">
      <stop offset="0" stop-color="#00b4ec"/>
      <stop offset="0" stop-color="#09b7ed"/>
      <stop offset=".05" stop-color="#37c4f0"/>
      <stop offset=".09" stop-color="#62d1f3"/>
      <stop offset=".14" stop-color="#88dcf6"/>
      <stop offset=".2" stop-color="#a8e6f9"/>
      <stop offset=".25" stop-color="#c4eefb"/>
      <stop offset=".32" stop-color="#daf4fc"/>
      <stop offset=".4" stop-color="#ebf9fd"/>
      <stop offset=".49" stop-color="#f6fcfe"/>
      <stop offset=".63" stop-color="#fdfeff"/>
      <stop offset="1" stop-color="#fff"/>
    </radialGradient>
    <radialGradient id="_무제_그라디언트_26" data-name="무제 그라디언트 26" cx="-4.51" cy="-457.52" fx="-4.51" fy="-457.52" r="2.99" gradientTransform="translate(56.69 -467.58) scale(1.13 -1.13)" gradientUnits="userSpaceOnUse">
      <stop offset=".3" stop-color="#fff"/>
      <stop offset=".64" stop-color="#82daf6"/>
      <stop offset="1" stop-color="#00b4ec"/>
    </radialGradient>
    <radialGradient id="_무제_그라디언트_27" data-name="무제 그라디언트 27" cx="-4.51" cy="-457.52" fx="-4.51" fy="-457.52" r="3.01" gradientTransform="translate(56.69 -467.58) scale(1.13 -1.13)" gradientUnits="userSpaceOnUse">
      <stop offset=".3" stop-color="#fff"/>
      <stop offset=".64" stop-color="#82daf6"/>
      <stop offset="1" stop-color="#00b4ec"/>
    </radialGradient>
    <radialGradient id="_무제_그라디언트_28" data-name="무제 그라디언트 28" cx="-4.51" cy="-457.52" fx="-4.51" fy="-457.52" r="3.01" gradientTransform="translate(56.69 -467.58) scale(1.13 -1.13)" gradientUnits="userSpaceOnUse">
      <stop offset=".3" stop-color="#fff"/>
      <stop offset=".64" stop-color="#82daf6"/>
      <stop offset="1" stop-color="#00b4ec"/>
    </radialGradient>
  </defs>
  <rect class="cls-4" x="-.02" width="68.04" height="68.67"/>
  <g>
    <circle class="cls-5" cx="17.28" cy="48.36" r="5"/>
    <path class="cls-5" d="m12.28,48.06h-5c-1.3,0-2.3-1-2.3-2.3v-25.5c0-1.3,1-2.3,2.3-2.3h47.7c3.5,0,6.9,2.8,6.9,6.3h0c0,1.6-1.3,2.8-2.8,2.8h-18v17.1"/>
    <polyline class="cls-5" points="36.18 44.16 36.18 27.06 27.78 27.06 27.78 44.16"/>
    <polyline class="cls-5" points="11.88 27.06 21.48 27.06 21.48 35.16 11.88 35.16 11.88 29.96"/>
    <line class="cls-5" x1="25.08" y1="48.06" x2="46.78" y2="48.06"/>
    <path class="cls-5" d="m60.18,48.06h1.7c.6,0,1.1-.5,1.1-1.1v-5.8c0-2.5-2.1-4.6-4.6-4.6h-12.1v-6.5"/>
    <line class="cls-5" x1="52.48" y1="27.06" x2="57.68" y2="36.56"/>
    <line class="cls-5" x1="48.08" y1="22.66" x2="53.28" y2="22.66"/>
    <g>
      <path class="cls-7" d="m51.58,43.36c2.8,0,5,2.2,5,5s-2.2,5-5,5-5-2.2-5-5,2.3-5,5-5"/>
      <path class="cls-6" d="m51.58,52.76c-1.3,0-1.8-2.6-1.8-4.4s.5-4.4,1.8-4.4,1.8,2.6,1.8,4.4-.5,4.4-1.8,4.4Zm0-8c-.3,0-.9,1.3-.9,3.6s.7,3.6.9,3.6.9-1.3.9-3.6-.6-3.6-.9-3.6Z"/>
      <path class="cls-8" d="m51.58,43.36c2.8,0,5,2.2,5,5s-2.2,5-5,5-5-2.2-5-5,2.3-5,5-5m0-1c-3.3,0-6,2.7-6,6s2.7,6,6,6,6-2.7,6-6-2.7-6-6-6h0Z"/>
      <path class="cls-3" d="m54.28,51.16c-.2,0-.5,0-.8-.1-.8-.2-1.8-.6-2.8-1.1-1.5-.9-3.6-2.6-2.9-3.7.1-.2.5-.5,1.2-.5.9,0,2.3.5,3.5,1.2,1,.6,1.8,1.2,2.4,1.8.8,1,.8,1.6.6,1.9-.2.2-.5.5-1.2.5Zm-5.3-4.7c-.3,0-.4.1-.5.1,0,.1,0,.4.5.9.5.6,1.3,1.2,2.2,1.7.9.5,1.8.9,2.5,1,.2,0,.4.1.6.1h0c.3,0,.4-.1.5-.1,0-.1,0-.4-.5-.9-.5-.6-1.3-1.2-2.2-1.7-1.4-.8-2.5-1.1-3.1-1.1Z"/>
      <path class="cls-2" d="m48.98,51.06c-.7,0-1-.3-1.2-.5-.2-.3-.3-1,.6-1.9.6-.6,1.4-1.3,2.3-1.8,1-.6,2-1,2.8-1.1.3-.1.5-.1.8-.1.7,0,1,.3,1.2.5.2.3.3.9-.6,1.9-.6.6-1.4,1.3-2.4,1.8-1.3.8-2.6,1.2-3.5,1.2Zm5.3-4.6c-.2,0-.4,0-.6.1-.7.1-1.6.5-2.5,1s-1.7,1.1-2.2,1.7c-.5.5-.5.9-.5.9,0,0,.1.1.5.1.6,0,1.7-.3,3.1-1.1.9-.5,1.7-1.1,2.2-1.7s.5-.9.5-.9c-.1,0-.2-.1-.5-.1Z"/>
      <circle class="cls-1" cx="51.58" cy="48.36" r=".8"/>
    </g>
  </g>
</svg>