<?xml version="1.0" encoding="UTF-8"?>
<svg id="Layer_1" data-name="Layer 1" xmlns="http://www.w3.org/2000/svg" xmlns:xlink="http://www.w3.org/1999/xlink" viewBox="0 0 68.04 68.67">
  <defs>
    <style>
      .cls-1 {
        fill: #221e1f;
      }

      .cls-2 {
        fill: url(#_무제_그라디언트_15);
      }

      .cls-3 {
        fill: url(#_무제_그라디언트_16);
      }

      .cls-4 {
        fill: url(#_무제_그라디언트_13);
      }

      .cls-5, .cls-6 {
        fill: none;
      }

      .cls-7 {
        fill: url(#_무제_그라디언트_14);
      }

      .cls-6 {
        stroke: #221e1f;
        stroke-linecap: round;
        stroke-miterlimit: 10;
        stroke-width: 2px;
      }

      .cls-8 {
        fill: #002a67;
      }
    </style>
    <radialGradient id="_무제_그라디언트_13" data-name="무제 그라디언트 13" cx="50.43" cy="-153.85" fx="50.43" fy="-153.85" r="4.28" gradientTransform="translate(0 -108.14) scale(1 -1)" gradientUnits="userSpaceOnUse">
      <stop offset="0" stop-color="#00b4ec"/>
      <stop offset="0" stop-color="#09b7ed"/>
      <stop offset=".05" stop-color="#37c4f0"/>
      <stop offset=".09" stop-color="#62d1f3"/>
      <stop offset=".14" stop-color="#88dcf6"/>
      <stop offset=".2" stop-color="#a8e6f9"/>
      <stop offset=".25" stop-color="#c4eefb"/>
      <stop offset=".32" stop-color="#daf4fc"/>
      <stop offset=".4" stop-color="#ebf9fd"/>
      <stop offset=".49" stop-color="#f6fcfe"/>
      <stop offset=".63" stop-color="#fdfeff"/>
      <stop offset="1" stop-color="#fff"/>
    </radialGradient>
    <radialGradient id="_무제_그라디언트_14" data-name="무제 그라디언트 14" cx="260.04" cy="-224.65" fx="260.04" fy="-224.65" r="3.44" gradientTransform="translate(-169.18 -144.02) scale(.84 -.84)" gradientUnits="userSpaceOnUse">
      <stop offset=".3" stop-color="#fff"/>
      <stop offset=".64" stop-color="#82daf6"/>
      <stop offset="1" stop-color="#00b4ec"/>
    </radialGradient>
    <radialGradient id="_무제_그라디언트_15" data-name="무제 그라디언트 15" cx="260.04" cy="-224.66" fx="260.04" fy="-224.66" r="3.47" gradientTransform="translate(-169.18 -144.02) scale(.84 -.84)" gradientUnits="userSpaceOnUse">
      <stop offset=".3" stop-color="#fff"/>
      <stop offset=".64" stop-color="#82daf6"/>
      <stop offset="1" stop-color="#00b4ec"/>
    </radialGradient>
    <radialGradient id="_무제_그라디언트_16" data-name="무제 그라디언트 16" cx="260.04" cy="-224.65" fx="260.04" fy="-224.65" r="3.47" gradientTransform="translate(-169.18 -144.02) scale(.84 -.84)" gradientUnits="userSpaceOnUse">
      <stop offset=".3" stop-color="#fff"/>
      <stop offset=".64" stop-color="#82daf6"/>
      <stop offset="1" stop-color="#00b4ec"/>
    </radialGradient>
  </defs>
  <rect class="cls-5" x=".12" y="-.1" width="68.04" height="68.67"/>
  <g>
    <circle class="cls-6" cx="13.87" cy="45.72" r="4.23"/>
    <circle class="cls-6" cx="24.73" cy="45.72" r="4.23"/>
    <rect class="cls-6" x="6.56" y="16.68" width="37.51" height="22.12"/>
    <line class="cls-6" x1="11.37" y1="19.95" x2="11.37" y2="34.76"/>
    <line class="cls-6" x1="16.85" y1="19.95" x2="16.85" y2="34.76"/>
    <line class="cls-6" x1="22.43" y1="19.95" x2="22.43" y2="34.76"/>
    <line class="cls-6" x1="27.91" y1="19.95" x2="27.91" y2="34.76"/>
    <line class="cls-6" x1="33.39" y1="19.95" x2="33.39" y2="34.76"/>
    <line class="cls-6" x1="38.87" y1="19.95" x2="38.87" y2="34.76"/>
    <polyline class="cls-6" points="6.56 41.49 6.56 45.72 9.73 45.72"/>
    <line class="cls-6" x1="18.1" y1="45.72" x2="20.5" y2="45.72"/>
    <line class="cls-6" x1="28.87" y1="45.72" x2="48.3" y2="45.72"/>
    <polyline class="cls-6" points="49.45 38.41 55.61 38.41 58.68 45.72 63.2 45.72 63.2 31.97 57.05 21 48.11 21 48.11 34.66"/>
    <polyline class="cls-6" points="51.18 24.18 51.18 29.95 58.01 29.95"/>
    <g>
      <path class="cls-4" d="m50.41,41.39c2.4,0,4.33,1.92,4.33,4.33s-1.92,4.33-4.33,4.33-4.33-1.92-4.33-4.33,2.02-4.33,4.33-4.33"/>
      <path class="cls-7" d="m50.41,49.47c-1.15,0-1.54-2.31-1.54-3.85s.38-3.85,1.54-3.85,1.54,2.31,1.54,3.85-.38,3.85-1.54,3.85Zm0-6.83c-.19,0-.77,1.06-.77,3.08s.58,3.08.77,3.08.77-1.06.77-3.08-.58-3.08-.77-3.08Z"/>
      <path class="cls-8" d="m50.41,41.39c2.4,0,4.33,1.92,4.33,4.33s-1.92,4.33-4.33,4.33-4.33-1.92-4.33-4.33,2.02-4.33,4.33-4.33m0-.87c-2.89,0-5.19,2.31-5.19,5.19s2.31,5.19,5.19,5.19,5.19-2.31,5.19-5.19-2.31-5.19-5.19-5.19h0Z"/>
      <path class="cls-2" d="m52.72,48.03c-.19,0-.38,0-.67-.1-.67-.1-1.54-.48-2.4-.96-1.35-.77-3.08-2.21-2.5-3.27.1-.19.38-.48,1.06-.48.77,0,1.92.38,3.08,1.06.87.48,1.54,1.06,2.02,1.54.77.87.67,1.35.48,1.63-.19.38-.48.58-1.06.58Zm-4.52-3.94c-.29,0-.38.1-.38.1-.1.19.48,1.15,2.21,2.21.77.48,1.54.77,2.12.87.19,0,.38.1.48.1h0c.29,0,.38-.1.38-.1,0,0,0-.29-.38-.77s-1.06-.96-1.83-1.44c-1.15-.67-2.12-.96-2.6-.96Z"/>
      <path class="cls-3" d="m48.2,48.03c-.58,0-.87-.29-1.06-.48-.58-.96,1.15-2.5,2.5-3.27.87-.48,1.63-.87,2.4-.96.19-.1.48-.1.67-.1.67,0,.87.29,1.06.48.19.29.19.87-.48,1.63-.48.58-1.15,1.06-2.02,1.54-1.15.77-2.31,1.15-3.08,1.15Zm4.52-3.94c-.19,0-.29,0-.48.1-.67.1-1.44.48-2.12.87-.77.48-1.44.96-1.83,1.44s-.38.77-.38.77c0,0,.1.1.38.1.48,0,1.44-.29,2.69-.96.77-.48,1.44-.96,1.83-1.44s.48-.77.38-.77c-.19,0-.29-.1-.48-.1Z"/>
      <circle class="cls-1" cx="50.41" cy="45.72" r=".67"/>
    </g>
  </g>
</svg>