<?xml version="1.0" encoding="UTF-8"?>
<svg id="Layer_1" data-name="Layer 1" xmlns="http://www.w3.org/2000/svg" xmlns:xlink="http://www.w3.org/1999/xlink" viewBox="0 0 68.04 68.67">
  <defs>
    <style>
      .cls-1 {
        fill: #221e1f;
      }

      .cls-2 {
        fill: url(#_무제_그라디언트_22);
      }

      .cls-3 {
        fill: url(#_무제_그라디언트_24);
      }

      .cls-4 {
        fill: url(#_무제_그라디언트_21);
      }

      .cls-5 {
        fill: url(#_무제_그라디언트_23);
      }

      .cls-6, .cls-7, .cls-8 {
        fill: none;
      }

      .cls-7 {
        stroke-linejoin: round;
      }

      .cls-7, .cls-8 {
        stroke: #221e1f;
        stroke-linecap: round;
        stroke-width: 2px;
      }

      .cls-8 {
        stroke-miterlimit: 10;
      }

      .cls-9 {
        fill: #002a67;
      }
    </style>
    <radialGradient id="_무제_그라디언트_21" data-name="무제 그라디언트 21" cx="50.82" cy="-348.07" fx="50.82" fy="-348.07" r="5.36" gradientTransform="translate(0 -299.7) scale(1 -1)" gradientUnits="userSpaceOnUse">
      <stop offset="0" stop-color="#00b4ec"/>
      <stop offset="0" stop-color="#09b7ed"/>
      <stop offset=".05" stop-color="#37c4f0"/>
      <stop offset=".09" stop-color="#62d1f3"/>
      <stop offset=".14" stop-color="#88dcf6"/>
      <stop offset=".2" stop-color="#a8e6f9"/>
      <stop offset=".25" stop-color="#c4eefb"/>
      <stop offset=".32" stop-color="#daf4fc"/>
      <stop offset=".4" stop-color="#ebf9fd"/>
      <stop offset=".49" stop-color="#f6fcfe"/>
      <stop offset=".63" stop-color="#fdfeff"/>
      <stop offset="1" stop-color="#fff"/>
    </radialGradient>
    <radialGradient id="_무제_그라디언트_22" data-name="무제 그라디언트 22" cx="-17.31" cy="-286.95" fx="-17.31" fy="-286.95" r="3.12" gradientTransform="translate(70.34 -275.22) scale(1.13 -1.13)" gradientUnits="userSpaceOnUse">
      <stop offset=".3" stop-color="#fff"/>
      <stop offset=".64" stop-color="#82daf6"/>
      <stop offset="1" stop-color="#00b4ec"/>
    </radialGradient>
    <radialGradient id="_무제_그라디언트_23" data-name="무제 그라디언트 23" cx="-17.31" cy="-286.95" fx="-17.31" fy="-286.95" r="3.15" gradientTransform="translate(70.34 -275.22) scale(1.13 -1.13)" gradientUnits="userSpaceOnUse">
      <stop offset=".3" stop-color="#fff"/>
      <stop offset=".64" stop-color="#82daf6"/>
      <stop offset="1" stop-color="#00b4ec"/>
    </radialGradient>
    <radialGradient id="_무제_그라디언트_24" data-name="무제 그라디언트 24" cx="-17.31" cy="-286.95" fx="-17.31" fy="-286.95" r="3.15" gradientTransform="translate(70.34 -275.22) scale(1.13 -1.13)" gradientUnits="userSpaceOnUse">
      <stop offset=".3" stop-color="#fff"/>
      <stop offset=".64" stop-color="#82daf6"/>
      <stop offset="1" stop-color="#00b4ec"/>
    </radialGradient>
  </defs>
  <rect class="cls-6" x=".12" width="68.04" height="68.67"/>
  <g>
    <circle class="cls-8" cx="15.29" cy="48.37" r="5.67"/>
    <path class="cls-8" d="m59.47,48.52h5.82v-12.1l-3.86-9.15c-.83-1.97-2.72-3.25-4.84-3.25H6.74c-1.13,0-2.04.91-2.04,2.04v22.47h4.84"/>
    <polyline class="cls-7" points="57.2 28.47 9.69 28.47 9.69 36.49 61.28 36.49 58.94 30.97"/>
    <line class="cls-7" x1="46.08" y1="28.47" x2="46.08" y2="36.49"/>
    <line class="cls-7" x1="32.84" y1="28.47" x2="32.84" y2="36.49"/>
    <line class="cls-7" x1="19.75" y1="28.47" x2="19.75" y2="36.49"/>
    <line class="cls-8" x1="23.84" y1="48.52" x2="46.98" y2="48.52"/>
    <polyline class="cls-7" points="65.29 38.83 62.64 38.83 62.64 44.28 65.29 44.28"/>
    <polyline class="cls-7" points="4.7 37.78 2.58 37.78 2.58 44.05 4.7 44.05"/>
    <g>
      <path class="cls-4" d="m50.84,42.99c2.95,0,5.37,2.42,5.37,5.37s-2.42,5.37-5.37,5.37-5.37-2.42-5.37-5.37,2.42-5.37,5.37-5.37"/>
      <path class="cls-2" d="m50.84,52.98c-1.21,0-1.82-2.34-1.82-4.61s.61-4.61,1.82-4.61,1.82,2.34,1.82,4.61-.68,4.61-1.82,4.61Zm0-8.55c-.38,0-1.13,1.36-1.13,3.93s.76,3.93,1.13,3.93,1.13-1.36,1.13-3.93-.76-3.93-1.13-3.93Z"/>
      <path class="cls-9" d="m50.84,42.99c2.95,0,5.37,2.42,5.37,5.37s-2.42,5.37-5.37,5.37-5.37-2.42-5.37-5.37,2.42-5.37,5.37-5.37m0-1.06c-3.56,0-6.43,2.87-6.43,6.43s2.87,6.43,6.43,6.43,6.43-2.87,6.43-6.43-2.87-6.43-6.43-6.43h0Z"/>
      <path class="cls-5" d="m53.64,51.24c-.23,0-.53,0-.76-.08-.91-.15-1.89-.61-2.95-1.21-1.97-1.13-3.71-2.87-3.1-3.86.15-.23.45-.53,1.13-.53.98,0,2.42.45,3.78,1.29,1.06.61,1.89,1.29,2.5,1.97.83.98.83,1.59.61,1.89-.15.23-.45.53-1.21.53Zm-5.67-4.99c-.38,0-.53.08-.61.15-.08.15.08.53.53,1.13.53.61,1.36,1.29,2.34,1.82s1.97.98,2.72,1.13c.23.08.45.08.68.08.3,0,.53-.08.61-.15.08-.15-.08-.53-.53-1.13-.53-.61-1.36-1.29-2.34-1.82-1.51-.91-2.72-1.21-3.4-1.21Z"/>
      <path class="cls-3" d="m47.97,51.24c-.61,0-.98-.15-1.21-.53-.61-1.06,1.13-2.72,3.1-3.86,1.06-.61,2.04-.98,2.95-1.21.3-.08.53-.08.76-.08.76,0,1.06.3,1.21.53.23.3.23.91-.61,1.89-.61.68-1.51,1.36-2.5,1.97-1.29.76-2.72,1.29-3.71,1.29Zm5.67-4.99c-.23,0-.38,0-.68.08-.83.15-1.74.53-2.72,1.13-.98.53-1.82,1.21-2.34,1.82-.45.53-.61.98-.53,1.13.08.08.23.15.61.15.68,0,1.89-.3,3.4-1.21.98-.53,1.82-1.21,2.34-1.82.45-.53.61-.98.53-1.13-.08-.08-.3-.15-.61-.15Z"/>
      <circle class="cls-1" cx="50.84" cy="48.37" r=".83"/>
    </g>
  </g>
</svg>