<?xml version="1.0" encoding="UTF-8"?>
<svg id="Layer_1" data-name="Layer 1" xmlns="http://www.w3.org/2000/svg" xmlns:xlink="http://www.w3.org/1999/xlink" viewBox="0 0 68.04 68.67">
  <defs>
    <style>
      .cls-1 {
        fill: url(#_무제_그라디언트);
      }

      .cls-2 {
        fill: url(#_무제_그라디언트_4);
      }

      .cls-3 {
        fill: #221e1f;
      }

      .cls-4 {
        fill: url(#_무제_그라디언트_2);
      }

      .cls-5, .cls-6 {
        fill: none;
      }

      .cls-7 {
        fill: url(#_무제_그라디언트_3);
      }

      .cls-6 {
        stroke: #221e1f;
        stroke-linecap: round;
        stroke-miterlimit: 10;
        stroke-width: 2px;
      }

      .cls-8 {
        fill: #002a67;
      }
    </style>
    <radialGradient id="_무제_그라디언트" data-name="무제 그라디언트" cx="47.69" cy="24.66" fx="47.69" fy="24.66" r="4.7" gradientTransform="translate(0 76.05) scale(1 -1)" gradientUnits="userSpaceOnUse">
      <stop offset="0" stop-color="#00b4ec"/>
      <stop offset="0" stop-color="#09b7ed"/>
      <stop offset=".05" stop-color="#37c4f0"/>
      <stop offset=".09" stop-color="#62d1f3"/>
      <stop offset=".14" stop-color="#88dcf6"/>
      <stop offset=".2" stop-color="#a8e6f9"/>
      <stop offset=".25" stop-color="#c4eefb"/>
      <stop offset=".32" stop-color="#daf4fc"/>
      <stop offset=".4" stop-color="#ebf9fd"/>
      <stop offset=".49" stop-color="#f6fcfe"/>
      <stop offset=".63" stop-color="#fdfeff"/>
      <stop offset="1" stop-color="#fff"/>
    </radialGradient>
    <radialGradient id="_무제_그라디언트_2" data-name="무제 그라디언트 2" cx="47.69" cy="24.66" fx="47.69" fy="24.66" r="3.16" gradientTransform="translate(0 76.05) scale(1 -1)" gradientUnits="userSpaceOnUse">
      <stop offset=".3" stop-color="#fff"/>
      <stop offset=".64" stop-color="#82daf6"/>
      <stop offset="1" stop-color="#00b4ec"/>
    </radialGradient>
    <radialGradient id="_무제_그라디언트_3" data-name="무제 그라디언트 3" cx="47.69" cy="24.66" fx="47.69" fy="24.66" r="3.19" gradientTransform="translate(0 76.05) scale(1 -1)" gradientUnits="userSpaceOnUse">
      <stop offset=".3" stop-color="#fff"/>
      <stop offset=".64" stop-color="#82daf6"/>
      <stop offset="1" stop-color="#00b4ec"/>
    </radialGradient>
    <radialGradient id="_무제_그라디언트_4" data-name="무제 그라디언트 4" cx="47.69" cy="24.66" fx="47.69" fy="24.66" r="3.19" gradientTransform="translate(0 76.05) scale(1 -1)" gradientUnits="userSpaceOnUse">
      <stop offset=".3" stop-color="#fff"/>
      <stop offset=".64" stop-color="#82daf6"/>
      <stop offset="1" stop-color="#00b4ec"/>
    </radialGradient>
  </defs>
  <rect class="cls-5" y=".1" width="68.04" height="68.67"/>
  <g>
    <path class="cls-6" d="m30.75,20.62h-7.31v-12.16h7.31c1.33,0,2.37,1.04,2.37,2.37v7.5c0,1.23-1.04,2.28-2.37,2.28Z"/>
    <path class="cls-6" d="m35.5,14.55h4.08c3.61,0,6.46,2.94,6.46,6.46h0"/>
    <path class="cls-6" d="m15.37,44.08h-.38c-4.56,0-8.26-3.7-8.26-8.26h0"/>
    <path class="cls-6" d="m6.73,35.82h0c0-4.56,3.7-8.26,8.26-8.26h24.6c3.61,0,6.46-2.94,6.46-6.46h0"/>
    <path class="cls-6" d="m19.26,51.39h-.85c-1.71,0-3.13-1.42-3.13-3.13v-7.5c0-5.22,4.18-9.4,9.4-9.4h15.76c.76,0,1.52.28,1.99.85l5.89,6.08c17.66,4.94,8.07,13.11,8.07,13.11h-.95"/>
    <line class="cls-6" x1="28.66" y1="51.39" x2="43" y2="51.39"/>
    <line class="cls-6" x1="48.42" y1="38.29" x2="21.45" y2="38.29"/>
    <line class="cls-6" x1="31.7" y1="31.36" x2="31.7" y2="38.29"/>
    <circle class="cls-6" cx="24.01" cy="51.39" r="4.65"/>
    <line class="cls-6" x1="17.65" y1="11.51" x2="23.44" y2="11.51"/>
    <line class="cls-6" x1="17.65" y1="17.49" x2="23.44" y2="17.49"/>
    <g>
      <path class="cls-1" d="m47.66,46.74c2.56,0,4.65,2.09,4.65,4.65s-2.09,4.65-4.65,4.65-4.65-2.09-4.65-4.65,2.09-4.65,4.65-4.65"/>
      <path class="cls-4" d="m47.66,55.57c-1.23,0-1.71-2.47-1.71-4.18s.47-4.18,1.71-4.18,1.71,2.47,1.71,4.18-.47,4.18-1.71,4.18Zm0-7.5c-.28,0-.85,1.14-.85,3.32s.66,3.32.85,3.32c.28,0,.85-1.14.85-3.32s-.57-3.32-.85-3.32Z"/>
      <path class="cls-8" d="m47.66,46.74c2.56,0,4.65,2.09,4.65,4.65s-2.09,4.65-4.65,4.65-4.65-2.09-4.65-4.65,2.09-4.65,4.65-4.65m0-.95c-3.13,0-5.6,2.56-5.6,5.6s2.56,5.6,5.6,5.6,5.6-2.56,5.6-5.6-2.47-5.6-5.6-5.6h0Z"/>
      <path class="cls-7" d="m50.22,53.96c-.19,0-.47,0-.66-.09-.76-.19-1.71-.57-2.56-1.04-1.42-.85-3.32-2.47-2.75-3.51.09-.19.38-.47,1.14-.47.85,0,2.09.47,3.32,1.14.95.57,1.71,1.14,2.18,1.71.76.85.76,1.42.57,1.8-.28.19-.57.47-1.23.47Zm-5.03-4.37c-.28,0-.38.09-.47.09-.09.19.57,1.33,2.47,2.47.85.47,1.71.85,2.37.95.19,0,.38.09.57.09.28,0,.38-.09.38-.09,0-.09,0-.38-.47-.85-.47-.57-1.14-1.04-1.99-1.61-1.23-.76-2.28-1.04-2.85-1.04Z"/>
      <path class="cls-2" d="m45.19,53.96c-.66,0-.95-.28-1.14-.47-.57-1.04,1.33-2.66,2.75-3.51.95-.57,1.8-.85,2.56-1.04.28-.09.47-.09.66-.09.66,0,.95.28,1.14.47.19.28.28.85-.57,1.8-.47.57-1.33,1.23-2.18,1.71-1.14.66-2.37,1.14-3.23,1.14Zm5.03-4.37c-.19,0-.38,0-.57.09-.66.09-1.52.47-2.37.95-1.9,1.14-2.56,2.18-2.47,2.47,0,0,.09.09.47.09.57,0,1.61-.28,2.94-1.04.85-.47,1.52-1.04,1.99-1.61.47-.57.47-.85.47-.85-.09,0-.19-.09-.47-.09Z"/>
      <circle class="cls-3" cx="47.66" cy="51.39" r=".66"/>
    </g>
  </g>
</svg>