<?xml version="1.0" encoding="utf-8"?>
<!-- Generator: Adobe Illustrator 27.1.1, SVG Export Plug-In . SVG Version: 6.00 Build 0)  -->
<svg version="1.1" id="Layer_1" xmlns="http://www.w3.org/2000/svg" xmlns:xlink="http://www.w3.org/1999/xlink" x="0px" y="0px"
	 viewBox="0 0 136.9 71" style="enable-background:new 0 0 136.9 71;" xml:space="preserve">
<style type="text/css">
	.st0{fill:#00B4ED;}
</style>
<polygon points="42.6,0 42.6,24.3 26.4,24.3 26.4,0 0,0 0,71 26.4,71 26.4,46.6 42.6,46.6 42.6,71 42.6,71 69,71 69,0 "/>
<polygon points="104.9,0 78.5,0 78.5,71 91.7,71 104.9,47.7 "/>
<g>
	<polygon class="st0" points="104.9,47.7 91.7,71 136.9,71 136.9,47.7 	"/>
</g>
<path d="M449.8-530.3v5.1c5.5-5.1,8.7-6.5,14-6.5c11.2,0,17.9,7.4,17.9,19.5v33.2h-15.1v-27.9c0-5.2-0.3-7.2-1.6-9.1
	c-1.3-1.9-3.5-3-6.2-3c-2.6,0-4.9,1-6.5,2.8c-1.7,1.9-2.2,4-2.2,8.5v28.8h-15.1v-51.4H449.8z"/>
<path d="M602.8-504.2c0,15.5-11.5,26.7-27.3,26.7c-16,0-27.2-11.2-27.2-27.1c0-15.9,11.3-27,27.2-27
	C591.7-531.7,602.8-520.6,602.8-504.2 M563.4-504.6c0,9.7,4.4,15.1,12.1,15.1c7.6,0,12-5.4,12-14.8c0-9.9-4.3-15.3-12.1-15.3
	C567.8-519.6,563.4-514.2,563.4-504.6"/>
<path d="M426.3-478.9h-15.1v-4.2c-3.8,3.6-8.9,5.6-15.2,5.6c-12.9,0-23.8-10.9-23.8-27.1c0-16.1,10.9-27.1,23.8-27.1
	c6.3,0,11.4,2,15.2,5.6v-4.2h15.1V-478.9z M412.2-504.6c0-8.5-6.1-14.4-13-14.4c-7.4,0-12.8,5.9-12.8,14.4c0,8.6,5.4,14.4,12.8,14.4
	C406.1-490.2,412.2-495.9,412.2-504.6"/>
<polygon points="348.4,-549.9 331.1,-509.5 313.9,-549.9 296.1,-549.9 296.1,-478.9 300.8,-478.9 309.4,-478.9 310.7,-478.9 
	310.7,-525 326.9,-489.8 335.4,-489.8 351.5,-524.8 351.5,-478.9 352.8,-478.9 361.3,-478.9 366,-478.9 366,-549.9 "/>
<path d="M542-478.9v-71h-13.7H527l-0.1,24c-3.8-3.5-8.8-5.6-15.1-5.6c-12.9,0-23.7,10.9-23.7,26.9c0,16.1,10.8,26.9,23.7,26.9
	c6.3,0,11.3-2,15.1-5.6v4.2H542z M515-490.1c-7.4,0-12.7-5.7-12.7-14.3c0-8.5,5.4-14.3,12.7-14.3c6.8,0,13,5.8,13,14.3
	C527.9-495.8,521.8-490.1,515-490.1"/>
</svg>
