<?xml version="1.0" encoding="UTF-8"?>
<svg id="Layer_1" data-name="Layer 1" xmlns="http://www.w3.org/2000/svg" xmlns:xlink="http://www.w3.org/1999/xlink" viewBox="0 0 68.04 68.67">
  <defs>
    <style>
      .cls-1 {
        fill: #221e1f;
      }

      .cls-2 {
        fill: url(#_무제_그라디언트_8);
      }

      .cls-3 {
        fill: url(#_무제_그라디언트_7);
      }

      .cls-4, .cls-5 {
        fill: none;
      }

      .cls-6 {
        fill: url(#_무제_그라디언트_5);
      }

      .cls-5 {
        stroke: #221e1f;
        stroke-linecap: round;
        stroke-miterlimit: 10;
        stroke-width: 2px;
      }

      .cls-7 {
        fill: #002a67;
      }

      .cls-8 {
        fill: url(#_무제_그라디언트_6);
      }
    </style>
    <radialGradient id="_무제_그라디언트_5" data-name="무제 그라디언트 5" cx="37.62" cy="25.6" fx="37.62" fy="25.6" r="4.55" gradientTransform="translate(0 76.05) scale(1 -1)" gradientUnits="userSpaceOnUse">
      <stop offset="0" stop-color="#00b4ec"/>
      <stop offset="0" stop-color="#09b7ed"/>
      <stop offset=".05" stop-color="#37c4f0"/>
      <stop offset=".09" stop-color="#62d1f3"/>
      <stop offset=".14" stop-color="#88dcf6"/>
      <stop offset=".2" stop-color="#a8e6f9"/>
      <stop offset=".25" stop-color="#c4eefb"/>
      <stop offset=".32" stop-color="#daf4fc"/>
      <stop offset=".4" stop-color="#ebf9fd"/>
      <stop offset=".49" stop-color="#f6fcfe"/>
      <stop offset=".63" stop-color="#fdfeff"/>
      <stop offset="1" stop-color="#fff"/>
    </radialGradient>
    <radialGradient id="_무제_그라디언트_6" data-name="무제 그라디언트 6" cx="37.62" cy="25.6" fx="37.62" fy="25.6" r="3.06" gradientTransform="translate(0 76.05) scale(1 -1)" gradientUnits="userSpaceOnUse">
      <stop offset=".3" stop-color="#fff"/>
      <stop offset=".64" stop-color="#82daf6"/>
      <stop offset="1" stop-color="#00b4ec"/>
    </radialGradient>
    <radialGradient id="_무제_그라디언트_7" data-name="무제 그라디언트 7" cx="37.62" cy="25.6" fx="37.62" fy="25.6" r="3.09" gradientTransform="translate(0 76.05) scale(1 -1)" gradientUnits="userSpaceOnUse">
      <stop offset=".3" stop-color="#fff"/>
      <stop offset=".64" stop-color="#82daf6"/>
      <stop offset="1" stop-color="#00b4ec"/>
    </radialGradient>
    <radialGradient id="_무제_그라디언트_8" data-name="무제 그라디언트 8" cx="37.62" cy="25.6" fx="37.62" fy="25.6" r="3.09" gradientTransform="translate(0 76.05) scale(1 -1)" gradientUnits="userSpaceOnUse">
      <stop offset=".3" stop-color="#fff"/>
      <stop offset=".64" stop-color="#82daf6"/>
      <stop offset="1" stop-color="#00b4ec"/>
    </radialGradient>
  </defs>
  <rect class="cls-4" x="0" y="0" width="68.04" height="68.67"/>
  <g>
    <circle class="cls-5" cx="15.93" cy="50.49" r="4.51"/>
    <path class="cls-5" d="m17.77,28.86v-11.69h8.47c2.02,0,3.87,1.29,4.51,3.22l7.27,20.89h-8.56s-2.58-8.65-6.63-8.65h-8.01c-1.93,0-3.41,1.56-3.41,3.41v8.47"/>
    <line class="cls-5" x1="21.82" y1="22.42" x2="21.82" y2="28.86"/>
    <line class="cls-5" x1="20.53" y1="51.04" x2="34.06" y2="51.04"/>
    <line class="cls-5" x1="41.33" y1="43.4" x2="37.1" y2="14.04"/>
    <line class="cls-5" x1="45.2" y1="47.27" x2="59.55" y2="44.97"/>
    <polygon class="cls-5" points="44.28 30.06 45.75 42.76 59.28 40.92 57.62 27.11 44.28 30.06"/>
    <line class="cls-5" x1="50.72" y1="33.19" x2="50.72" y2="28.59"/>
    <g>
      <path class="cls-6" d="m37.65,45.89c2.48,0,4.51,2.02,4.51,4.51s-2.02,4.51-4.51,4.51-4.51-2.02-4.51-4.51,1.93-4.51,4.51-4.51"/>
      <path class="cls-8" d="m37.65,54.45c-1.2,0-1.66-2.39-1.66-4.05s.46-4.05,1.66-4.05,1.56,2.39,1.56,4.05-.46,4.05-1.56,4.05Zm0-7.27c-.28,0-.83,1.1-.83,3.22s.64,3.22.83,3.22.83-1.1.83-3.22-.64-3.22-.83-3.22Z"/>
      <path class="cls-7" d="m37.65,45.89c2.48,0,4.51,2.02,4.51,4.51s-2.02,4.51-4.51,4.51-4.51-2.02-4.51-4.51,1.93-4.51,4.51-4.51m0-.92c-3.04,0-5.43,2.48-5.43,5.43s2.48,5.43,5.43,5.43,5.43-2.48,5.43-5.43-2.48-5.43-5.43-5.43h0Z"/>
      <path class="cls-3" d="m40.04,52.97c-.18,0-.46,0-.64-.09-.74-.18-1.66-.55-2.48-1.01-1.38-.83-3.22-2.39-2.67-3.41.09-.18.37-.46,1.1-.46.83,0,2.02.46,3.22,1.1.92.55,1.66,1.1,2.12,1.66.74.83.74,1.38.55,1.75-.28.18-.55.46-1.2.46Zm-4.88-4.23c-.28,0-.37.09-.46.09,0,.18.64,1.29,2.48,2.39.83.46,1.66.83,2.3.92.18,0,.37.09.55.09.28,0,.37-.09.37-.09,0-.09,0-.37-.46-.83-.46-.55-1.1-1.01-1.93-1.56-1.2-.74-2.3-1.01-2.85-1.01Z"/>
      <path class="cls-2" d="m35.16,52.97c-.64,0-.92-.28-1.1-.46-.55-1.01,1.29-2.58,2.67-3.41.92-.55,1.75-.83,2.48-1.01.28-.09.46-.09.64-.09.64,0,.92.28,1.1.46.18.28.28.83-.55,1.75-.46.55-1.29,1.2-2.12,1.66-1.01.64-2.3,1.1-3.13,1.1Zm4.88-4.23c-.18,0-.37,0-.55.09-.64.09-1.47.46-2.3.92-1.84,1.1-2.48,2.12-2.39,2.39,0,0,.09.09.46.09.55,0,1.56-.28,2.85-1.01.83-.46,1.47-1.01,1.93-1.56.46-.55.46-.83.46-.83-.09,0-.18-.09-.46-.09Z"/>
      <circle class="cls-1" cx="37.65" cy="50.49" r=".64"/>
    </g>
  </g>
</svg>