<?xml version="1.0" encoding="UTF-8"?>
<svg id="_레이어_2" data-name="레이어 2" xmlns="http://www.w3.org/2000/svg" viewBox="0 0 141.73 141.73">
  <defs>
    <style>
      .cls-1 {
        fill: #21a9dc;
      }
    </style>
  </defs>
  <g id="_레이어_1-2" data-name="레이어 1">
    <g>
      <path class="cls-1" d="m70.87,0C31.79,0,0,31.79,0,70.87s31.79,70.86,70.87,70.86,70.86-31.79,70.86-70.86S109.94,0,70.87,0h0Zm0,126.24c-30.54,0-55.38-24.84-55.38-55.37S40.33,15.49,70.87,15.49s55.37,24.85,55.37,55.38-24.84,55.37-55.37,55.37h0Z"/>
      <path class="cls-1" d="m77.01,70.95v-29.7c0-3.32-2.69-6.01-6.01-6.01s-6.01,2.69-6.01,6.01v31.62c0,.1.02.19.03.28-.08,1.63.48,3.29,1.73,4.54l22.36,22.36c2.34,2.34,6.15,2.34,8.49,0,2.34-2.34,2.35-6.15,0-8.49l-20.59-20.59Z"/>
    </g>
  </g>
</svg>