<?xml version="1.0" encoding="UTF-8"?>
<svg id="_레이어_2" data-name="레이어 2" xmlns="http://www.w3.org/2000/svg" viewBox="0 0 134.35 141.73">
  <defs>
    <style>
      .cls-1 {
        fill: #21a9dc;
      }
    </style>
  </defs>
  <g id="_레이어_1-2" data-name="레이어 1">
    <g>
      <path class="cls-1" d="m47.47,97.39h-2.46c-1.73,0-3.13-1.4-3.13-3.12s1.4-3.12,3.13-3.12h2.46c4.02,0,6.73-2.71,6.73-6.73v-29.56c0-6.65-14.54-11.66-23.97-11.66s-23.97,5.01-23.97,11.66v29.56c0,4.02,2.7,6.73,6.73,6.73h2.46c1.73,0,3.13,1.4,3.13,3.12s-1.4,3.12-3.13,3.12h-2.46c-7.52,0-12.98-5.46-12.98-12.98v-29.56c0-12.5,20.01-17.91,30.23-17.91s30.23,5.41,30.23,17.91v29.56c0,7.52-5.46,12.98-12.98,12.98Z"/>
      <path class="cls-1" d="m30.23,35.78c-8.52,0-15.45-7.04-15.45-15.69v-4.19C14.78,7.24,21.71.2,30.23.2s15.44,7.04,15.44,15.69v4.19c0,8.65-6.93,15.69-15.44,15.69Zm0-29.33c-5.16,0-9.19,4.15-9.19,9.44v4.19c0,5.29,4.04,9.44,9.19,9.44s9.19-4.15,9.19-9.44v-4.19c0-5.29-4.04-9.44-9.19-9.44Z"/>
      <path class="cls-1" d="m84.42,97.49h-2.46c-1.73,0-3.13-1.4-3.13-3.12s1.4-3.12,3.13-3.12h2.46c3.96,0,6.73-2.81,6.73-6.83v-29.76c0-6.85-14.94-11.46-28.9-11.46h-4.93c-1.73,0-3.13-1.4-3.13-3.12s1.4-3.12,3.13-3.12h4.93c17.47,0,35.15,6.08,35.15,17.71v29.76c0,7.45-5.58,13.08-12.98,13.08Z"/>
      <path class="cls-1" d="m121.37,97.49h-2.46c-1.73,0-3.13-1.4-3.13-3.12s1.4-3.12,3.13-3.12h2.46c3.96,0,6.73-2.81,6.73-6.83v-29.76c0-6.85-14.94-11.46-28.9-11.46h-4.93c-1.73,0-3.13-1.4-3.13-3.12s1.4-3.12,3.13-3.12h4.93c17.47,0,35.15,6.08,35.15,17.71v29.76c0,7.45-5.58,13.08-12.98,13.08Z"/>
      <path class="cls-1" d="m81.96,141.73c-1.73,0-3.13-1.4-3.13-3.12v-73.9c0-1.72,1.4-3.12,3.13-3.12s3.13,1.4,3.13,3.12v73.9c0,1.72-1.4,3.12-3.13,3.12Z"/>
      <path class="cls-1" d="m67.18,35.57c-8.51,0-15.44-7.04-15.44-15.69v-4.19c0-8.65,6.93-15.69,15.44-15.69s15.44,7.04,15.44,15.69v4.19c0,8.65-6.93,15.69-15.44,15.69Zm0-29.33c-5.15,0-9.19,4.15-9.19,9.44v4.19c0,5.29,4.04,9.44,9.19,9.44s9.19-4.15,9.19-9.44v-4.19c0-5.29-4.04-9.44-9.19-9.44Z"/>
      <path class="cls-1" d="m118.91,141.73c-1.73,0-3.13-1.4-3.13-3.12v-73.9c0-1.72,1.4-3.12,3.13-3.12s3.13,1.4,3.13,3.12v73.9c0,1.72-1.4,3.12-3.13,3.12Z"/>
      <path class="cls-1" d="m104.13,35.57c-8.51,0-15.44-7.04-15.44-15.69v-4.19c0-8.65,6.93-15.69,15.44-15.69s15.45,7.04,15.45,15.69v4.19c0,8.65-6.93,15.69-15.45,15.69Zm0-29.33c-5.15,0-9.19,4.15-9.19,9.44v4.19c0,5.29,4.04,9.44,9.19,9.44s9.19-4.15,9.19-9.44v-4.19c0-5.29-4.04-9.44-9.19-9.44Z"/>
      <path class="cls-1" d="m45,141.73c-1.73,0-3.13-1.4-3.13-3.12v-73.9c0-1.72,1.4-3.12,3.13-3.12s3.13,1.4,3.13,3.12v73.9c0,1.72-1.4,3.12-3.13,3.12Z"/>
      <path class="cls-1" d="m15.44,141.73c-1.73,0-3.13-1.4-3.13-3.12v-73.9c0-1.72,1.4-3.12,3.13-3.12s3.13,1.4,3.13,3.12v73.9c0,1.72-1.4,3.12-3.13,3.12Z"/>
      <path class="cls-1" d="m30.23,141.73c-1.73,0-3.13-1.4-3.13-3.12v-46.81c0-1.72,1.4-3.12,3.13-3.12s3.13,1.4,3.13,3.12v46.81c0,1.72-1.4,3.12-3.13,3.12Z"/>
    </g>
  </g>
</svg>