<?xml version="1.0" encoding="UTF-8"?>
<svg id="_레이어_2" data-name="레이어 2" xmlns="http://www.w3.org/2000/svg" viewBox="0 0 141.73 116.58">
  <defs>
    <style>
      .cls-1 {
        fill: #21a9dc;
        fill-rule: evenodd;
      }
    </style>
  </defs>
  <g id="_레이어_1-2" data-name="레이어 1">
    <g>
      <path class="cls-1" d="m70.86,70.31h-12.49c-2.84,0-5.16,2.32-5.16,5.16v41.11H20.93c-3.83,0-6.96-3.13-6.96-6.96v-44.17l56.89-47.94,56.9,47.94v44.17c0,3.83-3.14,6.96-6.96,6.96h-32.29v-41.11c0-2.84-2.32-5.16-5.15-5.16h-12.5Z"/>
      <path class="cls-1" d="m70.86,10.27L7.4,64.76c-4.34,3.05-9.27-4-6.69-6.92L66.1,1.72c1.33-1.12,3.05-1.68,4.76-1.72,1.72.04,3.44.6,4.77,1.72l30.22,25.97v-6.99c0-2.03,1.68-3.66,3.7-3.66h9.91c2.02,0,3.7,1.63,3.7,3.66v21.78l17.86,15.35c2.58,2.93-2.36,9.98-6.69,6.92L70.86,10.27Z"/>
    </g>
  </g>
</svg>