<?xml version="1.0" encoding="UTF-8"?>
<svg id="_레이어_2" data-name="레이어 2" xmlns="http://www.w3.org/2000/svg" viewBox="0 0 141.73 135.21">
  <defs>
    <style>
      .cls-1 {
        fill: #21a9dc;
      }
    </style>
  </defs>
  <g id="_레이어_1-2" data-name="레이어 1">
    <path class="cls-1" d="m27.58,28.01C-8.33,58.4-1.73,89.25,6.42,111.29c-2.08,7.68-3.56,15.65-4.39,23.91h8.63c3.49-28.11,11.7-51.41,23.74-69.07,9.15-13.41,20.81-23.7,34.72-30.67,3.12-1.69,5.04-2.35,5.04-2.35-1.72.73-3.39,1.52-5.04,2.35-11.43,6.19-39.02,26.24-48.17,78.71,17.72-2.51,39.06,5.43,65.19-16.93C120.13,68.15,115.92,23.79,141.73,0,96.89,9.34,55.89,4.05,27.58,28.01Z"/>
  </g>
</svg>