<?xml version="1.0" encoding="UTF-8"?>
<svg id="_레이어_2" data-name="레이어 2" xmlns="http://www.w3.org/2000/svg" viewBox="0 0 141.73 141.73">
  <defs>
    <style>
      .cls-1 {
        fill: #21a9dc;
      }
    </style>
  </defs>
  <g id="_레이어_1-2" data-name="레이어 1">
    <g>
      <path class="cls-1" d="m70.87,0C31.79,0,0,31.79,0,70.87s31.79,70.86,70.87,70.86,70.86-31.79,70.86-70.86S109.94,0,70.87,0h0Zm0,126.24c-30.54,0-55.38-24.84-55.38-55.37S40.33,15.49,70.87,15.49s55.37,24.85,55.37,55.38-24.84,55.37-55.37,55.37h0Z"/>
      <path class="cls-1" d="m94.99,84.67c0-9.35-5.48-14.77-14.16-18.02l-8.11-3.44c-6.36-2.38-10.8-3.84-10.8-7.83s3.35-5.92,8.29-5.92c4.44,0,7.78.86,10.94,2.48,2.68,1.37,5.95.67,7.83-1.68h0c2.43-3.04,1.56-7.51-1.8-9.45-3.81-2.19-8.04-3.56-12.34-4.07v-7.32c0-1.2-.97-2.16-2.16-2.16h-6.26c-1.2,0-2.16.97-2.16,2.16v7.8c-10.63,2.28-17.51,9.88-17.51,19.03,0,9.65,6.7,15.28,14.05,18.07l8.64,3.68c6.27,2.63,10.21,3.78,10.21,8.55,0,3.24-2.94,5.71-9.31,5.71-4.62,0-9.11-1.45-13.13-3.79-2.76-1.6-6.26-1.02-8.3,1.43l-.34.41c-2.59,3.1-1.77,7.79,1.73,9.81,4.34,2.5,9.12,4.09,13.96,4.75v7.44c0,1.2.97,2.16,2.16,2.16h6.26c1.2,0,2.16-.97,2.16-2.16v-7.48c12.95-1.89,20.15-10.45,20.15-20.17Z"/>
    </g>
  </g>
</svg>