<?xml version="1.0" encoding="UTF-8"?>
<svg id="_레이어_2" data-name="레이어 2" xmlns="http://www.w3.org/2000/svg" viewBox="0 0 135.7 141.73">
  <defs>
    <style>
      .cls-1 {
        fill: #21a9dc;
      }
    </style>
  </defs>
  <g id="_레이어_1-2" data-name="레이어 1">
    <g>
      <path class="cls-1" d="m10.58,59.02c4.81,0,8.88-3.24,10.15-7.65h27.24c1.63,0,2.93-1.31,2.93-2.93v-11.77h13.94c1.62,0,2.93-1.31,2.93-2.93s-1.31-2.93-2.93-2.93h-16.87c-1.62,0-2.93,1.31-2.93,2.93v11.77h-24.31c-1.28-4.42-5.34-7.65-10.15-7.65-5.83,0-10.58,4.74-10.58,10.58s4.74,10.58,10.58,10.58Zm0-15.3c2.6,0,4.71,2.11,4.72,4.71h-.01s.01.01.01.02c-.01,2.59-2.12,4.71-4.72,4.71s-4.72-2.12-4.72-4.72,2.12-4.72,4.72-4.72Z"/>
      <path class="cls-1" d="m135.6,62.96c-.44-2.16-2.35-3.79-4.65-3.79h-8.21c-.48-2.4-1.12-4.79-1.91-7.12l7.12-4.11c.3-.17.58-.38.82-.61.09-.08.15-.17.23-.25.15-.16.3-.32.42-.49.08-.11.15-.23.22-.35.1-.17.19-.34.27-.52.05-.13.1-.26.15-.39.06-.19.11-.39.15-.58.02-.09.06-.17.07-.27,0-.06,0-.13,0-.19,0-.1.01-.2.01-.31,0-.17,0-.35-.01-.52-.01-.15-.04-.31-.06-.46-.02-.1-.04-.2-.07-.3-.05-.19-.1-.37-.17-.56-.05-.14-.12-.27-.18-.4-.04-.09-.07-.18-.12-.27l-.05-.09s-.02-.04-.03-.06l-6.84-11.82-.05-.08s0-.01-.01-.02c-1.31-2.26-4.2-3.03-6.47-1.73l-7.12,4.12c-.81-.92-1.65-1.82-2.52-2.69-.87-.87-1.77-1.72-2.68-2.52l4.11-7.12c.07-.12.1-.24.16-.36.05-.11.1-.21.14-.32.08-.2.14-.39.19-.59.03-.12.05-.25.07-.38.02-.16.06-.31.07-.47.02-.29.01-.58-.03-.87,0-.02-.01-.04-.02-.06-.03-.2-.1-.41-.16-.61-.04-.14-.07-.29-.12-.43,0-.03-.01-.05-.02-.08-.11-.27-.26-.53-.42-.77-.07-.11-.16-.2-.24-.3-.1-.13-.21-.26-.33-.38-.12-.13-.26-.25-.4-.36-.13-.11-.26-.2-.4-.29-.08-.06-.15-.13-.24-.18l-11.89-6.86s0,0-.01,0l-.15-.09c-.1-.06-.2-.08-.3-.13-.13-.06-.26-.12-.39-.17-.2-.08-.4-.14-.6-.19-.09-.02-.19-.03-.28-.05-.2-.03-.39-.07-.59-.08-.28-.02-.56,0-.84.03,0,0-.01,0-.02,0-.26.04-.52.12-.78.2-.1.03-.2.05-.29.08-.02,0-.05.01-.07.02-.28.11-.54.26-.79.43-.09.06-.17.13-.26.2-.15.12-.3.24-.44.37-.12.12-.23.24-.34.36-.11.14-.22.28-.31.43-.05.08-.13.15-.18.24l-4.1,7.1c-2.32-.77-4.72-1.42-7.12-1.9V4.74c0-2.61-2.13-4.74-4.74-4.74h-15.53c-.8,0-1.51.3-2.06.79-1.28.85-2.13,2.3-2.13,3.95v11.4h-16.84c-1.28-4.46-5.44-7.73-10.34-7.65-5.57.09-10.25,4.73-10.39,10.3-.15,5.96,4.65,10.85,10.57,10.85,4.81,0,8.88-3.23,10.15-7.65h19.77c1.62,0,2.93-1.31,2.93-2.93V6.3h12.31v7.96c0,2.27,1.6,4.26,3.85,4.65.24.04.48.1.71.14,2.72.52,5.41,1.25,8,2.19,1.6.58,3.32.21,4.57-.82,0,0,.01,0,.02-.01.15-.12.28-.27.41-.41.06-.06.12-.11.18-.18.18-.21.34-.44.48-.69l3.98-6.88,9.33,5.39-3.97,6.9c-1.14,1.97-.74,4.49,1,5.95,2.03,1.71,3.94,3.6,5.7,5.6.23.26.46.52.69.78,1.09,1.29,2.76,1.84,4.35,1.58.01,0,.03,0,.04,0,.12-.02.24-.06.36-.1.38-.1.75-.23,1.1-.42.03-.02.07-.03.1-.05l6.89-3.98,5.41,9.36-6.9,3.98c-.07.04-.13.09-.2.14-.17.11-.34.22-.49.34-.06.05-.11.11-.17.17-.14.13-.29.27-.41.41-1,1.2-1.37,2.84-.89,4.38.02.07.03.14.05.21.03.1.07.2.1.3.95,2.68,1.69,5.46,2.2,8.26,0,.03.01.06.02.09.41,2.27,2.37,3.92,4.66,3.92h7.95v10.79h-7.95c-2.3,0-4.25,1.65-4.66,3.92,0,.03-.01.07-.02.1-.51,2.81-1.26,5.58-2.2,8.26-.03.1-.07.2-.1.3-.02.07-.03.14-.05.21-.48,1.54-.12,3.18.89,4.38.12.14.25.26.38.38.07.06.12.14.2.2.15.13.32.23.49.34.07.04.13.1.2.14l6.9,3.98-5.41,9.36-6.89-3.98s-.07-.03-.1-.05c-.35-.19-.72-.33-1.1-.42-.12-.03-.24-.07-.36-.1-.01,0-.03,0-.04,0-1.6-.26-3.27.29-4.35,1.58-.22.27-.46.52-.69.78-1.76,2-3.66,3.89-5.7,5.6-1.73,1.46-2.13,3.98-1,5.95l3.97,6.9-9.33,5.39-3.98-6.88c-.14-.25-.3-.48-.48-.69-.05-.06-.12-.12-.18-.18-.13-.14-.26-.29-.41-.41,0,0-.01,0-.02-.01-1.25-1.03-2.97-1.4-4.57-.82-2.59.94-5.28,1.67-8,2.19-.24.05-.47.1-.71.14-2.25.39-3.85,2.38-3.85,4.65v7.96h-12.31v-12.77c0-1.62-1.31-2.93-2.93-2.93h-19.77c-1.28-4.42-5.34-7.65-10.15-7.65-5.92,0-10.72,4.89-10.57,10.85.14,5.57,4.82,10.21,10.39,10.3,4.89.08,9.06-3.19,10.34-7.65h16.84v11.4c0,1.65.85,3.11,2.13,3.95.55.49,1.26.79,2.06.79h15.53c2.61,0,4.74-2.13,4.74-4.74v-8.22c2.4-.48,4.8-1.12,7.12-1.9l4.1,7.1c.05.09.12.16.18.24.1.15.2.29.31.43.11.13.22.25.34.36.14.13.28.26.44.37.09.07.16.14.26.2.25.17.51.31.79.43.02,0,.05.01.07.02.09.04.2.05.29.08.26.08.52.16.78.2,0,0,.01,0,.02,0,.28.04.56.05.84.03.2,0,.39-.05.59-.08.09-.02.19-.03.28-.05.2-.05.4-.11.6-.19.13-.05.26-.11.39-.17.1-.05.21-.08.3-.13l.15-.09s0,0,.01,0l11.89-6.86c.09-.05.16-.12.24-.18.14-.09.27-.19.4-.29.14-.12.27-.24.4-.36.12-.12.22-.25.33-.38.08-.1.17-.19.24-.3.16-.24.31-.5.42-.77.01-.03.01-.05.02-.08.05-.14.08-.29.12-.43.06-.2.13-.4.16-.61,0-.02.01-.04.02-.06.04-.29.05-.58.03-.87,0-.16-.04-.32-.07-.47-.02-.13-.04-.25-.07-.38-.05-.2-.11-.4-.19-.59-.04-.11-.09-.22-.14-.32-.06-.12-.09-.25-.16-.36l-4.11-7.12c.91-.81,1.81-1.65,2.68-2.52.87-.87,1.71-1.77,2.52-2.69l7.12,4.12c2.27,1.3,5.16.53,6.47-1.73,0,0,0-.01.01-.02l.05-.08,6.84-11.82s.02-.04.03-.06l.05-.09c.05-.09.08-.18.12-.27.06-.13.13-.26.18-.4.07-.18.13-.37.17-.56.03-.1.05-.2.07-.3.03-.15.05-.31.06-.46.02-.17.02-.34.01-.52,0-.1,0-.21-.01-.31,0-.06,0-.13,0-.19-.01-.09-.05-.18-.07-.27-.04-.2-.09-.39-.15-.59-.04-.13-.09-.26-.15-.39-.08-.18-.17-.35-.27-.52-.07-.12-.14-.24-.22-.35-.13-.18-.27-.34-.42-.49-.08-.08-.15-.18-.23-.25-.25-.23-.52-.43-.82-.61l-7.12-4.11c.78-2.33,1.43-4.72,1.91-7.12h8.21c.65,0,1.28-.13,1.85-.37.28-.12.55-.27.81-.44,1.01-.68,1.74-1.74,1.99-2.98.06-.31.1-.63.1-.96v-13.9c0-.33-.03-.65-.1-.96ZM29.81,19.08c-.01,2.6-2.12,4.71-4.72,4.71s-4.72-2.12-4.72-4.72,2.12-4.72,4.72-4.72,4.72,2.11,4.72,4.71v.02Zm0,103.6c0,2.6-2.12,4.71-4.72,4.71s-4.72-2.12-4.72-4.72,2.12-4.72,4.72-4.72,4.71,2.11,4.72,4.71v.02Z"/>
      <path class="cls-1" d="m67.98,98.39c13.8-1.56,24.56-13.31,24.56-27.52h0c0-14.21-10.76-25.96-24.56-27.52-1.67-.19-3.14,1.09-3.14,2.77h0v.28h0c0,1.45,1.11,2.61,2.54,2.78,10.85,1.26,19.3,10.51,19.3,21.69s-8.45,20.43-19.3,21.69c-1.43.17-2.54,1.33-2.54,2.77h0v.28h0c0,1.68,1.47,2.96,3.14,2.77Z"/>
      <path class="cls-1" d="m39.1,81.45c3.15,0,5.97-1.39,7.91-3.59,1.02-1.16,1.81-2.54,2.25-4.06h18.6c1.62,0,2.93-1.31,2.93-2.93,0,0,0,0,0,0s0,0,0,0c0-1.62-1.31-2.93-2.93-2.93h-18.6c-.44-1.52-1.22-2.9-2.25-4.06-1.94-2.2-4.76-3.59-7.91-3.59-5.83,0-10.58,4.74-10.58,10.58,0,0,0,0,0,0s0,0,0,0c0,5.83,4.74,10.58,10.58,10.58Zm0-15.3c1.3,0,2.48.53,3.33,1.38.85.84,1.38,2.03,1.39,3.33h0c-.01,1.31-.54,2.49-1.39,3.34-.84.85-2.03,1.38-3.33,1.38-2.6,0-4.72-2.11-4.72-4.71,0-2.61,2.12-4.71,4.72-4.71Z"/>
      <path class="cls-1" d="m20.73,96.22h24.31v11.77c0,1.62,1.31,2.93,2.93,2.93h16.87c1.62,0,2.93-1.31,2.93-2.93s-1.31-2.93-2.93-2.93h-13.94v-11.77c0-1.62-1.3-2.93-2.93-2.93h-27.24c-1.28-4.4-5.34-7.65-10.15-7.65-5.83,0-10.58,4.74-10.58,10.58s4.74,10.58,10.58,10.58c4.81,0,8.88-3.23,10.15-7.65Zm-5.43-2.92c-.01,2.6-2.12,4.71-4.72,4.71s-4.72-2.12-4.72-4.72,2.12-4.72,4.72-4.72,4.71,2.12,4.72,4.71c0,.01-.01.01-.01.01h.01Z"/>
    </g>
  </g>
</svg>