<?xml version="1.0" encoding="UTF-8"?>
<svg xmlns="http://www.w3.org/2000/svg" xmlns:xlink="http://www.w3.org/1999/xlink" viewBox="0 0 54.34 54.75">
  <defs>
    <style>
      .cls-1 {
        fill: #221e1f;
      }

      .cls-2 {
        fill: url(#radial-gradient-4);
      }

      .cls-3 {
        isolation: isolate;
      }

      .cls-4 {
        fill: url(#radial-gradient);
        filter: url(#outer-glow-1);
      }

      .cls-5 {
        fill: url(#radial-gradient-2);
      }

      .cls-6 {
        fill: url(#radial-gradient-3);
      }

      .cls-7 {
        fill: none;
        stroke: #221e1f;
        stroke-linecap: round;
        stroke-miterlimit: 10;
        stroke-width: 2px;
      }

      .cls-8 {
        fill: #002a67;
      }

      .cls-9 {
        mix-blend-mode: multiply;
      }
    </style>
    <radialGradient id="radial-gradient" cx="29.47" cy="40.56" fx="29.47" fy="40.56" r="4.95" gradientUnits="userSpaceOnUse">
      <stop offset="0" stop-color="#00b4ec"/>
      <stop offset="0" stop-color="#09b6ec"/>
      <stop offset=".05" stop-color="#37c4f0"/>
      <stop offset=".09" stop-color="#62d0f3"/>
      <stop offset=".14" stop-color="#87dbf6"/>
      <stop offset=".2" stop-color="#a8e5f8"/>
      <stop offset=".25" stop-color="#c3edfa"/>
      <stop offset=".32" stop-color="#d9f4fc"/>
      <stop offset=".4" stop-color="#eaf8fd"/>
      <stop offset=".49" stop-color="#f6fcfe"/>
      <stop offset=".63" stop-color="#fdfefe"/>
      <stop offset="1" stop-color="#fff"/>
    </radialGradient>
    <filter id="outer-glow-1" filterUnits="userSpaceOnUse">
      <feOffset dx="0" dy="0"/>
      <feGaussianBlur result="blur" stdDeviation="2.83"/>
      <feFlood flood-color="#00b4ec" flood-opacity="1"/>
      <feComposite in2="blur" operator="in"/>
      <feComposite in="SourceGraphic"/>
    </filter>
    <radialGradient id="radial-gradient-2" cx="29.47" cy="40.56" fx="29.47" fy="40.56" r="3.33" gradientUnits="userSpaceOnUse">
      <stop offset=".3" stop-color="#fff"/>
      <stop offset=".64" stop-color="#81daf5"/>
      <stop offset="1" stop-color="#00b4ec"/>
    </radialGradient>
    <radialGradient id="radial-gradient-3" cx="29.47" cy="40.56" fx="29.47" fy="40.56" r="3.36" xlink:href="#radial-gradient-2"/>
    <radialGradient id="radial-gradient-4" cx="29.47" cy="40.56" fx="29.47" fy="40.56" r="3.36" xlink:href="#radial-gradient-2"/>
  </defs>
  <g class="cls-3">
    <g id="_레이어_2" data-name="레이어 2">
      <g id="Layer_1" data-name="Layer 1">
        <g>
          <circle class="cls-7" cx="5.95" cy="40.56" r="4.95"/>
          <path class="cls-7" d="m7.95,17.1V4.41h9.15c2.22,0,4.19,1.4,4.92,3.5l7.86,22.69h-9.32s-2.82-9.42-7.22-9.42H4.72c-2.06,0-3.72,1.67-3.72,3.72v9.19"/>
          <line class="cls-7" x1="12.3" y1="10.12" x2="12.3" y2="17.1"/>
          <line class="cls-7" x1="10.89" y1="41.2" x2="25.55" y2="41.2"/>
          <line class="cls-7" x1="33.51" y1="32.95" x2="28.91" y2="1"/>
          <line class="cls-7" x1="37.67" y1="37.15" x2="53.34" y2="34.63"/>
          <polygon class="cls-7" points="36.68 18.36 38.31 32.15 53 30.23 51.17 15.19 36.68 18.36"/>
          <line class="cls-7" x1="43.7" y1="21.82" x2="43.7" y2="16.82"/>
          <g>
            <path class="cls-4" d="m29.47,35.62c2.73,0,4.95,2.21,4.95,4.95s-2.21,4.95-4.95,4.95-4.95-2.21-4.95-4.95,2.21-4.95,4.95-4.95"/>
            <g class="cls-9">
              <path class="cls-5" d="m29.47,44.93c-1.28,0-1.75-2.61-1.75-4.36s.47-4.36,1.75-4.36,1.75,2.61,1.75,4.36-.47,4.36-1.75,4.36Zm0-7.91c-.27,0-.93,1.24-.93,3.55s.66,3.55.93,3.55.93-1.24.93-3.55-.66-3.55-.93-3.55Z"/>
            </g>
            <path class="cls-8" d="m29.47,35.62c2.73,0,4.95,2.21,4.95,4.95s-2.21,4.95-4.95,4.95-4.95-2.21-4.95-4.95,2.21-4.95,4.95-4.95m0-1c-3.28,0-5.95,2.67-5.95,5.95s2.67,5.95,5.95,5.95,5.95-2.67,5.95-5.95-2.67-5.95-5.95-5.95h0Z"/>
            <g class="cls-9">
              <path class="cls-6" d="m32.08,43.27c-.22,0-.47-.03-.74-.08-.82-.16-1.79-.56-2.74-1.1-1.52-.88-3.55-2.59-2.91-3.7.14-.24.45-.52,1.16-.52.89,0,2.23.45,3.5,1.19.95.55,1.78,1.2,2.33,1.82.83.94.77,1.54.58,1.87-.14.24-.45.52-1.17.52Zm-5.23-4.58c-.32,0-.43.08-.45.11-.13.23.61,1.43,2.61,2.58.88.51,1.76.87,2.5,1.01.22.04.42.07.59.07.3,0,.43-.07.45-.11.04-.06.02-.36-.48-.93-.49-.56-1.25-1.15-2.12-1.65-1.37-.79-2.49-1.07-3.09-1.07Z"/>
            </g>
            <g class="cls-9">
              <path class="cls-2" d="m26.84,43.26c-.71,0-1.02-.28-1.16-.52-.64-1.11,1.39-2.82,2.91-3.7.95-.55,1.93-.94,2.74-1.1.27-.05.52-.08.75-.08.72,0,1.03.28,1.17.52.19.33.25.93-.58,1.87-.55.63-1.38,1.27-2.33,1.82-1.27.73-2.61,1.19-3.5,1.19Zm5.25-4.59c-.17,0-.37.02-.59.07-.73.15-1.62.51-2.49,1.01-2,1.15-2.74,2.35-2.61,2.58.02.03.13.11.45.11.59,0,1.72-.28,3.09-1.07.88-.51,1.63-1.09,2.12-1.65.5-.57.52-.87.48-.93-.02-.04-.15-.11-.45-.11Z"/>
            </g>
            <circle class="cls-1" cx="29.47" cy="40.56" r=".75"/>
          </g>
        </g>
      </g>
    </g>
  </g>
</svg>