<?xml version="1.0" encoding="UTF-8"?>
<svg xmlns="http://www.w3.org/2000/svg" xmlns:xlink="http://www.w3.org/1999/xlink" viewBox="0 0 60.85 44.96">
  <defs>
    <style>
      .cls-1 {
        fill: #221e1f;
      }

      .cls-2 {
        fill: url(#radial-gradient-4);
      }

      .cls-3 {
        isolation: isolate;
      }

      .cls-4 {
        fill: url(#radial-gradient);
        filter: url(#outer-glow-1);
      }

      .cls-5 {
        fill: url(#radial-gradient-2);
      }

      .cls-6 {
        fill: url(#radial-gradient-3);
      }

      .cls-7 {
        fill: none;
        stroke: #221e1f;
        stroke-linecap: round;
        stroke-miterlimit: 10;
        stroke-width: 2px;
      }

      .cls-8 {
        fill: #002a67;
      }

      .cls-9 {
        mix-blend-mode: multiply;
      }
    </style>
    <radialGradient id="radial-gradient" cx="46.59" cy="31.2" fx="46.59" fy="31.2" r="4.45" gradientUnits="userSpaceOnUse">
      <stop offset="0" stop-color="#00b4ec"/>
      <stop offset="0" stop-color="#09b6ec"/>
      <stop offset=".05" stop-color="#37c4f0"/>
      <stop offset=".09" stop-color="#62d0f3"/>
      <stop offset=".14" stop-color="#87dbf6"/>
      <stop offset=".2" stop-color="#a8e5f8"/>
      <stop offset=".25" stop-color="#c3edfa"/>
      <stop offset=".32" stop-color="#d9f4fc"/>
      <stop offset=".4" stop-color="#eaf8fd"/>
      <stop offset=".49" stop-color="#f6fcfe"/>
      <stop offset=".63" stop-color="#fdfefe"/>
      <stop offset="1" stop-color="#fff"/>
    </radialGradient>
    <filter id="outer-glow-1" filterUnits="userSpaceOnUse">
      <feOffset dx="0" dy="0"/>
      <feGaussianBlur result="blur" stdDeviation="2.83"/>
      <feFlood flood-color="#00b4ec" flood-opacity="1"/>
      <feComposite in2="blur" operator="in"/>
      <feComposite in="SourceGraphic"/>
    </filter>
    <radialGradient id="radial-gradient-2" cx="194.99" cy="31.15" fx="194.99" fy="31.15" r="3.57" gradientTransform="translate(-118.08 4.89) scale(.84)" gradientUnits="userSpaceOnUse">
      <stop offset=".3" stop-color="#fff"/>
      <stop offset=".64" stop-color="#81daf5"/>
      <stop offset="1" stop-color="#00b4ec"/>
    </radialGradient>
    <radialGradient id="radial-gradient-3" cx="194.99" cy="31.15" fx="194.99" fy="31.15" r="3.61" xlink:href="#radial-gradient-2"/>
    <radialGradient id="radial-gradient-4" cx="194.99" cy="31.15" fx="194.99" fy="31.15" r="3.61" xlink:href="#radial-gradient-2"/>
  </defs>
  <g class="cls-3">
    <g id="_레이어_2" data-name="레이어 2">
      <g id="Layer_1" data-name="Layer 1">
        <g>
          <circle class="cls-7" cx="8.6" cy="31.2" r="4.35"/>
          <circle class="cls-7" cx="19.83" cy="31.2" r="4.35"/>
          <rect class="cls-7" x="1" y="1" width="38.97" height="23.01"/>
          <line class="cls-7" x1="6.01" y1="4.46" x2="6.01" y2="19.86"/>
          <line class="cls-7" x1="11.73" y1="4.46" x2="11.73" y2="19.86"/>
          <line class="cls-7" x1="17.44" y1="4.46" x2="17.44" y2="19.86"/>
          <line class="cls-7" x1="23.16" y1="4.46" x2="23.16" y2="19.86"/>
          <line class="cls-7" x1="28.88" y1="4.46" x2="28.88" y2="19.86"/>
          <line class="cls-7" x1="34.59" y1="4.46" x2="34.59" y2="19.86"/>
          <polyline class="cls-7" points="1 26.85 1 31.2 4.25 31.2"/>
          <line class="cls-7" x1="12.95" y1="31.2" x2="15.48" y2="31.2"/>
          <line class="cls-7" x1="24.18" y1="31.2" x2="44.35" y2="31.2"/>
          <polyline class="cls-7" points="45.54 23.58 52 23.58 55.13 31.2 59.85 31.2 59.85 16.92 53.48 5.48 44.19 5.48 44.19 19.69"/>
          <polyline class="cls-7" points="47.35 8.81 47.35 14.78 54.47 14.78"/>
          <g>
            <path class="cls-4" d="m46.59,26.75c2.46,0,4.45,1.99,4.45,4.45s-1.99,4.45-4.45,4.45-4.45-1.99-4.45-4.45,1.99-4.45,4.45-4.45"/>
            <g class="cls-9">
              <path class="cls-5" d="m46.59,35.16c-1.18,0-1.6-2.37-1.6-3.96s.43-3.96,1.6-3.96,1.6,2.37,1.6,3.96-.43,3.96-1.6,3.96Zm0-7.12c-.21,0-.81,1.09-.81,3.16s.6,3.16.81,3.16.81-1.09.81-3.16-.6-3.16-.81-3.16Z"/>
            </g>
            <path class="cls-8" d="m46.59,26.75c2.46,0,4.45,1.99,4.45,4.45s-1.99,4.45-4.45,4.45-4.45-1.99-4.45-4.45,1.99-4.45,4.45-4.45m0-.9c-2.95,0-5.35,2.4-5.35,5.35s2.4,5.35,5.35,5.35,5.35-2.4,5.35-5.35-2.4-5.35-5.35-5.35h0Z"/>
            <g class="cls-9">
              <path class="cls-6" d="m48.94,33.66c-.2,0-.42-.02-.67-.07-.74-.15-1.62-.5-2.48-1-1.38-.79-3.21-2.35-2.63-3.37.13-.22.41-.48,1.06-.48.81,0,2.02.41,3.16,1.07.86.5,1.61,1.08,2.1,1.65.76.86.7,1.41.52,1.72-.13.22-.42.48-1.08.48Zm-4.71-4.12c-.27,0-.37.07-.38.08-.1.18.54,1.25,2.33,2.28.79.45,1.58.78,2.24.91.2.04.38.06.53.06h0c.27,0,.37-.06.38-.09.02-.04.01-.3-.43-.8-.44-.5-1.12-1.03-1.9-1.48-1.23-.71-2.23-.96-2.76-.96Z"/>
            </g>
            <g class="cls-9">
              <path class="cls-2" d="m44.23,33.66c-.65,0-.94-.26-1.06-.48-.59-1.02,1.25-2.57,2.62-3.37.86-.5,1.74-.85,2.48-1,.25-.05.48-.07.68-.07.66,0,.95.26,1.08.48.18.31.23.86-.52,1.72-.5.56-1.24,1.15-2.1,1.65-1.14.66-2.36,1.07-3.16,1.07Zm4.72-4.13c-.15,0-.33.02-.53.06-.66.13-1.45.45-2.24.91-.79.45-1.46.98-1.9,1.49-.44.51-.45.77-.43.8,0,.02.11.08.38.08.53,0,1.54-.25,2.76-.96.79-.45,1.46-.98,1.9-1.48.44-.5.45-.76.43-.8-.01-.02-.11-.09-.38-.09Z"/>
            </g>
            <circle class="cls-1" cx="46.59" cy="31.2" r=".67"/>
          </g>
        </g>
      </g>
    </g>
  </g>
</svg>