<?xml version="1.0" encoding="UTF-8"?>
<svg xmlns="http://www.w3.org/2000/svg" xmlns:xlink="http://www.w3.org/1999/xlink" viewBox="0 0 84.88 49.4">
  <defs>
    <style>
      .cls-1 {
        fill: #221e1f;
      }

      .cls-2 {
        fill: url(#radial-gradient-4);
      }

      .cls-3 {
        isolation: isolate;
      }

      .cls-4 {
        fill: url(#radial-gradient);
        filter: url(#outer-glow-1);
      }

      .cls-5 {
        fill: url(#radial-gradient-2);
      }

      .cls-6 {
        stroke-linejoin: round;
      }

      .cls-6, .cls-7 {
        fill: none;
        stroke: #221e1f;
        stroke-linecap: round;
        stroke-width: 2px;
      }

      .cls-8 {
        fill: url(#radial-gradient-3);
      }

      .cls-7 {
        stroke-miterlimit: 10;
      }

      .cls-9 {
        fill: #002a67;
      }

      .cls-10 {
        mix-blend-mode: multiply;
      }
    </style>
    <radialGradient id="radial-gradient" cx="64.78" cy="33.16" fx="64.78" fy="33.16" r="7.09" gradientUnits="userSpaceOnUse">
      <stop offset="0" stop-color="#00b4ec"/>
      <stop offset="0" stop-color="#09b6ec"/>
      <stop offset=".05" stop-color="#37c4f0"/>
      <stop offset=".09" stop-color="#62d0f3"/>
      <stop offset=".14" stop-color="#87dbf6"/>
      <stop offset=".2" stop-color="#a8e5f8"/>
      <stop offset=".25" stop-color="#c3edfa"/>
      <stop offset=".32" stop-color="#d9f4fc"/>
      <stop offset=".4" stop-color="#eaf8fd"/>
      <stop offset=".49" stop-color="#f6fcfe"/>
      <stop offset=".63" stop-color="#fdfefe"/>
      <stop offset="1" stop-color="#fff"/>
    </radialGradient>
    <filter id="outer-glow-1" filterUnits="userSpaceOnUse">
      <feOffset dx="0" dy="0"/>
      <feGaussianBlur result="blur" stdDeviation="2.83"/>
      <feFlood flood-color="#00b4ec" flood-opacity="1"/>
      <feComposite in2="blur" operator="in"/>
      <feComposite in="SourceGraphic"/>
    </filter>
    <radialGradient id="radial-gradient-2" cx="29.48" cy="17.3" fx="29.48" fy="17.3" r="4.13" gradientTransform="translate(31.54 13.65) scale(1.13)" gradientUnits="userSpaceOnUse">
      <stop offset=".3" stop-color="#fff"/>
      <stop offset=".64" stop-color="#81daf5"/>
      <stop offset="1" stop-color="#00b4ec"/>
    </radialGradient>
    <radialGradient id="radial-gradient-3" cx="29.48" cy="17.3" fx="29.48" fy="17.3" r="4.16" xlink:href="#radial-gradient-2"/>
    <radialGradient id="radial-gradient-4" cx="29.48" cy="17.3" fx="29.48" fy="17.3" r="4.16" xlink:href="#radial-gradient-2"/>
  </defs>
  <g class="cls-3">
    <g id="_레이어_2" data-name="레이어 2">
      <g id="Layer_1" data-name="Layer 1">
        <g>
          <circle class="cls-7" cx="17.77" cy="33.16" r="7.53"/>
          <path class="cls-7" d="m76.2,33.35h7.68v-15.96l-5.07-12.13c-1.08-2.58-3.61-4.26-6.4-4.26H6.5c-1.49,0-2.7,1.21-2.7,2.7v29.66h6.45"/>
          <polyline class="cls-6" points="73.16 6.85 10.46 6.85 10.46 17.46 78.64 17.46 75.47 10.15"/>
          <line class="cls-6" x1="58.56" y1="6.85" x2="58.56" y2="17.46"/>
          <line class="cls-6" x1="41.01" y1="6.85" x2="41.01" y2="17.46"/>
          <line class="cls-6" x1="23.75" y1="6.85" x2="23.75" y2="17.46"/>
          <line class="cls-7" x1="29.15" y1="33.35" x2="59.68" y2="33.35"/>
          <polyline class="cls-6" points="83.88 20.53 80.42 20.53 80.42 27.78 83.88 27.78"/>
          <polyline class="cls-6" points="3.8 19.14 1 19.14 1 27.42 3.8 27.42"/>
          <g>
            <path class="cls-4" d="m64.78,26.07c3.92,0,7.09,3.18,7.09,7.09s-3.18,7.09-7.09,7.09-7.09-3.18-7.09-7.09,3.18-7.09,7.09-7.09"/>
            <g class="cls-10">
              <path class="cls-5" d="m64.78,39.3c-1.57,0-2.39-3.09-2.39-6.14s.82-6.14,2.39-6.14,2.39,3.09,2.39,6.14-.82,6.14-2.39,6.14Zm0-11.35c-.5,0-1.46,1.84-1.46,5.21s.97,5.21,1.46,5.21,1.46-1.84,1.46-5.21-.96-5.21-1.46-5.21Z"/>
            </g>
            <path class="cls-9" d="m64.78,26.07c3.92,0,7.09,3.18,7.09,7.09s-3.18,7.09-7.09,7.09-7.09-3.18-7.09-7.09,3.18-7.09,7.09-7.09m0-1.43c-4.7,0-8.53,3.83-8.53,8.53s3.83,8.53,8.53,8.53,8.53-3.83,8.53-8.53-3.83-8.53-8.53-8.53h0Z"/>
            <g class="cls-10">
              <path class="cls-8" d="m68.53,36.91c-.31,0-.67-.04-1.04-.11-1.16-.23-2.54-.79-3.9-1.57-2.64-1.52-4.9-3.78-4.12-5.14.18-.31.59-.68,1.55-.68,1.26,0,3.16.65,4.96,1.68,1.36.78,2.53,1.7,3.31,2.59,1.14,1.3,1.07,2.1.81,2.55-.18.31-.6.68-1.57.68Zm-7.51-6.57c-.46,0-.69.11-.75.21-.11.19.07.73.71,1.46.71.82,1.81,1.67,3.08,2.41,1.27.73,2.55,1.25,3.62,1.46.33.07.62.1.88.1.39,0,.67-.08.75-.22.12-.2-.06-.74-.71-1.47-.71-.81-1.81-1.67-3.08-2.4-1.99-1.15-3.62-1.56-4.49-1.56Z"/>
            </g>
            <g class="cls-10">
              <path class="cls-2" d="m61.02,36.91c-.77,0-1.29-.23-1.55-.68-.78-1.36,1.48-3.61,4.12-5.14,1.36-.78,2.74-1.34,3.9-1.57.38-.08.73-.11,1.04-.11.97,0,1.39.37,1.57.68.26.45.32,1.25-.81,2.54-.78.89-1.95,1.81-3.31,2.59-1.8,1.04-3.7,1.68-4.96,1.68Zm7.52-6.58c-.25,0-.55.03-.88.1-1.06.21-2.35.73-3.62,1.46-1.27.73-2.36,1.59-3.08,2.41-.64.74-.81,1.27-.71,1.46.06.1.29.21.75.21.87,0,2.5-.41,4.49-1.56,1.27-.73,2.36-1.58,3.08-2.4.65-.74.82-1.27.71-1.47-.08-.14-.36-.22-.75-.22Z"/>
            </g>
            <circle class="cls-1" cx="64.78" cy="33.16" r="1.07"/>
          </g>
        </g>
      </g>
    </g>
  </g>
</svg>