<?xml version="1.0" encoding="UTF-8"?>
<svg xmlns="http://www.w3.org/2000/svg" xmlns:xlink="http://www.w3.org/1999/xlink" viewBox="0 0 54.5 54.4">
  <defs>
    <style>
      .cls-1 {
        fill: #221e1f;
      }

      .cls-2 {
        fill: url(#radial-gradient-4);
      }

      .cls-3 {
        isolation: isolate;
      }

      .cls-4 {
        fill: url(#radial-gradient);
        filter: url(#outer-glow-1);
      }

      .cls-5 {
        fill: url(#radial-gradient-2);
      }

      .cls-6 {
        fill: url(#radial-gradient-3);
      }

      .cls-7 {
        fill: none;
        stroke: #221e1f;
        stroke-linecap: round;
        stroke-miterlimit: 10;
        stroke-width: 2px;
      }

      .cls-8 {
        fill: #002a67;
      }

      .cls-9 {
        mix-blend-mode: multiply;
      }
    </style>
    <radialGradient id="radial-gradient" cx="40.54" cy="40.17" fx="40.54" fy="40.17" r="5.31" gradientUnits="userSpaceOnUse">
      <stop offset="0" stop-color="#00b4ec"/>
      <stop offset="0" stop-color="#09b6ec"/>
      <stop offset=".05" stop-color="#37c4f0"/>
      <stop offset=".09" stop-color="#62d0f3"/>
      <stop offset=".14" stop-color="#87dbf6"/>
      <stop offset=".2" stop-color="#a8e5f8"/>
      <stop offset=".25" stop-color="#c3edfa"/>
      <stop offset=".32" stop-color="#d9f4fc"/>
      <stop offset=".4" stop-color="#eaf8fd"/>
      <stop offset=".49" stop-color="#f6fcfe"/>
      <stop offset=".63" stop-color="#fdfefe"/>
      <stop offset="1" stop-color="#fff"/>
    </radialGradient>
    <filter id="outer-glow-1" filterUnits="userSpaceOnUse">
      <feOffset dx="0" dy="0"/>
      <feGaussianBlur result="blur" stdDeviation="2.83"/>
      <feFlood flood-color="#00b4ec" flood-opacity="1"/>
      <feComposite in2="blur" operator="in"/>
      <feComposite in="SourceGraphic"/>
    </filter>
    <radialGradient id="radial-gradient-2" cx="178.54" cy="56.79" fx="178.54" fy="56.79" r="4.21" gradientTransform="translate(-110.24 -7.79) scale(.84)" gradientUnits="userSpaceOnUse">
      <stop offset=".3" stop-color="#fff"/>
      <stop offset=".64" stop-color="#81daf5"/>
      <stop offset="1" stop-color="#00b4ec"/>
    </radialGradient>
    <radialGradient id="radial-gradient-3" cx="178.54" cy="56.79" fx="178.54" fy="56.79" r="4.24" xlink:href="#radial-gradient-2"/>
    <radialGradient id="radial-gradient-4" cx="178.54" cy="56.79" fx="178.54" fy="56.79" r="4.24" xlink:href="#radial-gradient-2"/>
  </defs>
  <g class="cls-3">
    <g id="_레이어_2" data-name="레이어 2">
      <g id="Layer_1" data-name="Layer 1">
        <g>
          <circle class="cls-7" cx="6.39" cy="40.17" r="5.39"/>
          <line class="cls-7" x1="14.22" y1="38.78" x2="32.68" y2="38.78"/>
          <path class="cls-7" d="m8.88,35.4h20.15c5,0,8.64-4.74,7.35-9.57L29.74,1h-8.01"/>
          <line class="cls-7" x1="38.69" y1="34.78" x2="36.38" y2="25.82"/>
          <path class="cls-7" d="m5.11,30.3s7.96-1.21,9.74,5.09"/>
          <path class="cls-7" d="m33.6,5.45s7.66,5.19,6.03,24.43"/>
          <g>
            <path class="cls-4" d="m40.54,34.86c2.93,0,5.31,2.38,5.31,5.31s-2.38,5.31-5.31,5.31-5.31-2.38-5.31-5.31,2.38-5.31,5.31-5.31"/>
            <g class="cls-9">
              <path class="cls-5" d="m40.54,44.84c-1.36,0-1.86-2.79-1.86-4.67s.5-4.67,1.86-4.67,1.86,2.79,1.86,4.67-.5,4.67-1.86,4.67Zm0-8.5c-.3,0-1.02,1.34-1.02,3.83s.73,3.83,1.02,3.83,1.02-1.34,1.02-3.83-.73-3.83-1.02-3.83Z"/>
            </g>
            <path class="cls-8" d="m40.54,34.86c2.93,0,5.31,2.38,5.31,5.31s-2.38,5.31-5.31,5.31-5.31-2.38-5.31-5.31,2.38-5.31,5.31-5.31m0-1.07c-3.52,0-6.39,2.86-6.39,6.39s2.86,6.39,6.39,6.39,6.39-2.86,6.39-6.39-2.86-6.39-6.39-6.39h0Z"/>
            <g class="cls-9">
              <path class="cls-6" d="m43.34,43.05c-.24,0-.51-.03-.79-.09-.88-.17-1.92-.6-2.94-1.19-1.62-.94-3.79-2.76-3.11-3.94.14-.25.47-.55,1.22-.55.96,0,2.39.49,3.75,1.27,1.02.59,1.91,1.29,2.5,1.96.88,1,.82,1.63.62,1.99-.14.25-.48.55-1.24.55Zm-5.62-4.92c-.34,0-.48.08-.5.12-.15.26.65,1.56,2.81,2.8.94.54,1.9.93,2.69,1.09.24.05.46.07.64.07.34,0,.47-.08.5-.13.06-.1-.03-.46-.52-1.02-.53-.6-1.34-1.24-2.29-1.78-1.48-.85-2.69-1.16-3.33-1.16Z"/>
            </g>
            <g class="cls-9">
              <path class="cls-2" d="m37.72,43.05c-.75,0-1.08-.3-1.22-.55-.68-1.18,1.49-3,3.11-3.94,1.02-.59,2.07-1.01,2.94-1.19.29-.06.56-.09.79-.09.76,0,1.09.3,1.24.55.2.35.26.99-.62,1.99-.59.67-1.47,1.36-2.5,1.95-1.36.78-2.79,1.27-3.75,1.27Zm5.64-4.93c-.18,0-.4.02-.64.07-.79.16-1.74.54-2.69,1.09-2.16,1.24-2.96,2.54-2.81,2.8.02.04.16.12.5.12.64,0,1.85-.3,3.33-1.16.94-.55,1.76-1.18,2.29-1.78.49-.56.58-.92.52-1.02-.03-.05-.17-.13-.5-.13Z"/>
            </g>
            <circle class="cls-1" cx="40.54" cy="40.17" r=".8"/>
          </g>
        </g>
      </g>
    </g>
  </g>
</svg>