<?xml version="1.0" encoding="UTF-8"?>
<svg xmlns="http://www.w3.org/2000/svg" xmlns:xlink="http://www.w3.org/1999/xlink" viewBox="0 0 61.5 44.92">
  <defs>
    <style>
      .cls-1 {
        fill: #221e1f;
      }

      .cls-2 {
        fill: url(#radial-gradient-4);
      }

      .cls-3 {
        isolation: isolate;
      }

      .cls-4 {
        fill: url(#radial-gradient);
        filter: url(#outer-glow-1);
      }

      .cls-5 {
        fill: url(#radial-gradient-2);
      }

      .cls-6 {
        fill: url(#radial-gradient-3);
      }

      .cls-7 {
        fill: none;
        stroke: #221e1f;
        stroke-linecap: round;
        stroke-miterlimit: 10;
        stroke-width: 2px;
      }

      .cls-8 {
        fill: #002a67;
      }

      .cls-9 {
        mix-blend-mode: multiply;
      }
    </style>
    <radialGradient id="radial-gradient" cx="47.54" cy="31.39" fx="47.54" fy="31.39" r="5.01" gradientUnits="userSpaceOnUse">
      <stop offset="0" stop-color="#00b4ec"/>
      <stop offset="0" stop-color="#09b6ec"/>
      <stop offset=".05" stop-color="#37c4f0"/>
      <stop offset=".09" stop-color="#62d0f3"/>
      <stop offset=".14" stop-color="#87dbf6"/>
      <stop offset=".2" stop-color="#a8e5f8"/>
      <stop offset=".25" stop-color="#c3edfa"/>
      <stop offset=".32" stop-color="#d9f4fc"/>
      <stop offset=".4" stop-color="#eaf8fd"/>
      <stop offset=".49" stop-color="#f6fcfe"/>
      <stop offset=".63" stop-color="#fdfefe"/>
      <stop offset="1" stop-color="#fff"/>
    </radialGradient>
    <filter id="outer-glow-1" filterUnits="userSpaceOnUse">
      <feOffset dx="0" dy="0"/>
      <feGaussianBlur result="blur" stdDeviation="2.83"/>
      <feFlood flood-color="#00b4ec" flood-opacity="1"/>
      <feComposite in2="blur" operator="in"/>
      <feComposite in="SourceGraphic"/>
    </filter>
    <radialGradient id="radial-gradient-2" cx="22.71" cy="7.3" fx="22.71" fy="7.3" r="2.99" gradientTransform="translate(21.94 23.16) scale(1.13)" gradientUnits="userSpaceOnUse">
      <stop offset=".3" stop-color="#fff"/>
      <stop offset=".64" stop-color="#81daf5"/>
      <stop offset="1" stop-color="#00b4ec"/>
    </radialGradient>
    <radialGradient id="radial-gradient-3" cx="22.7" cy="7.3" fx="22.7" fy="7.3" r="3.01" xlink:href="#radial-gradient-2"/>
    <radialGradient id="radial-gradient-4" cx="22.71" cy="7.3" fx="22.71" fy="7.3" r="3.01" xlink:href="#radial-gradient-2"/>
  </defs>
  <g class="cls-3">
    <g id="_레이어_2" data-name="레이어 2">
      <g id="Layer_1" data-name="Layer 1">
        <g>
          <circle class="cls-7" cx="13.25" cy="31.39" r="5.03"/>
          <path class="cls-7" d="m8.23,31.06H3.27c-1.25,0-2.27-1.02-2.27-2.27V3.27c0-1.25,1.02-2.27,2.27-2.27h47.68c3.48,0,6.87,2.82,6.87,6.3h0c0,1.55-1.26,2.81-2.81,2.81h-18.05v17.1"/>
          <polyline class="cls-7" points="32.1 27.21 32.1 10.11 23.75 10.11 23.75 27.21"/>
          <polyline class="cls-7" points="7.82 10.11 17.37 10.11 17.37 18.21 7.82 18.21 7.82 12.97"/>
          <line class="cls-7" x1="21.03" y1="31.06" x2="42.74" y2="31.06"/>
          <path class="cls-7" d="m56.14,31.06h1.75c.62,0,1.12-.5,1.12-1.12v-5.75c0-2.54-2.06-4.6-4.6-4.6h-12.12v-6.53"/>
          <line class="cls-7" x1="48.37" y1="10.11" x2="53.57" y2="19.59"/>
          <line class="cls-7" x1="44.02" y1="5.65" x2="49.21" y2="5.65"/>
          <g>
            <path class="cls-4" d="m47.54,26.38c2.77,0,5.01,2.24,5.01,5.01s-2.24,5.01-5.01,5.01-5.01-2.24-5.01-5.01,2.24-5.01,5.01-5.01"/>
            <g class="cls-9">
              <path class="cls-5" d="m47.54,35.81c-1.3,0-1.77-2.64-1.77-4.42s.47-4.42,1.77-4.42,1.77,2.64,1.77,4.42-.47,4.42-1.77,4.42Zm0-8.02c-.28,0-.95,1.26-.95,3.6s.67,3.6.95,3.6.95-1.26.95-3.6-.67-3.6-.95-3.6Z"/>
            </g>
            <path class="cls-8" d="m47.54,26.38c2.77,0,5.01,2.24,5.01,5.01s-2.24,5.01-5.01,5.01-5.01-2.24-5.01-5.01,2.24-5.01,5.01-5.01m0-1.01c-3.32,0-6.03,2.7-6.03,6.03s2.7,6.03,6.03,6.03,6.03-2.7,6.03-6.03-2.7-6.03-6.03-6.03h0Z"/>
            <g class="cls-9">
              <path class="cls-6" d="m50.19,34.13c-.23,0-.48-.03-.75-.08-.83-.17-1.82-.56-2.78-1.12-1.54-.89-3.59-2.62-2.94-3.74.14-.24.45-.52,1.17-.52.9,0,2.26.46,3.55,1.2.97.56,1.8,1.21,2.36,1.85.84.95.78,1.56.58,1.89-.14.24-.45.52-1.18.52Zm-5.3-4.64c-.33,0-.44.08-.46.11-.04.07.02.4.49.94.5.57,1.26,1.17,2.15,1.68.89.51,1.79.88,2.53,1.02.23.04.43.07.6.07h0c.31,0,.43-.07.46-.12.04-.06.02-.36-.49-.94-.5-.57-1.26-1.16-2.15-1.68-1.39-.8-2.53-1.09-3.13-1.09Z"/>
            </g>
            <g class="cls-9">
              <path class="cls-2" d="m44.88,34.13c-.71,0-1.03-.28-1.17-.52-.2-.34-.25-.96.62-1.93.56-.62,1.4-1.28,2.32-1.81.97-.56,1.95-.96,2.78-1.12.27-.05.53-.08.75-.08.73,0,1.04.29,1.18.53.19.34.25.94-.58,1.89-.56.63-1.39,1.29-2.36,1.85-1.28.74-2.64,1.2-3.54,1.2Zm5.32-4.65c-.17,0-.38.02-.6.07-.74.15-1.64.51-2.53,1.03-.89.51-1.66,1.11-2.15,1.68-.47.54-.53.86-.49.94.02.03.14.11.46.11.6,0,1.74-.29,3.13-1.09.89-.51,1.65-1.11,2.15-1.68.51-.58.52-.88.49-.94-.03-.04-.15-.12-.46-.12Z"/>
            </g>
            <circle class="cls-1" cx="47.54" cy="31.39" r=".76"/>
          </g>
        </g>
      </g>
    </g>
  </g>
</svg>