<?xml version="1.0" encoding="UTF-8"?>
<svg xmlns="http://www.w3.org/2000/svg" xmlns:xlink="http://www.w3.org/1999/xlink" viewBox="0 0 30.43 60.96">
  <defs>
    <style>
      .cls-1 {
        fill: #221e1f;
      }

      .cls-2 {
        fill: url(#radial-gradient-4);
      }

      .cls-3 {
        isolation: isolate;
      }

      .cls-4 {
        fill: url(#radial-gradient);
        filter: url(#outer-glow-1);
      }

      .cls-5 {
        fill: url(#radial-gradient-2);
      }

      .cls-6 {
        fill: url(#radial-gradient-3);
      }

      .cls-7 {
        fill: none;
        stroke: #221e1f;
        stroke-linecap: round;
        stroke-miterlimit: 10;
        stroke-width: 2px;
      }

      .cls-8 {
        fill: #002a67;
      }

      .cls-9 {
        mix-blend-mode: multiply;
      }
    </style>
    <radialGradient id="radial-gradient" cx="15.27" cy="46.91" fx="15.27" fy="46.91" r="5.27" gradientUnits="userSpaceOnUse">
      <stop offset="0" stop-color="#00b4ec"/>
      <stop offset="0" stop-color="#09b6ec"/>
      <stop offset=".05" stop-color="#37c4f0"/>
      <stop offset=".09" stop-color="#62d0f3"/>
      <stop offset=".14" stop-color="#87dbf6"/>
      <stop offset=".2" stop-color="#a8e5f8"/>
      <stop offset=".25" stop-color="#c3edfa"/>
      <stop offset=".32" stop-color="#d9f4fc"/>
      <stop offset=".4" stop-color="#eaf8fd"/>
      <stop offset=".49" stop-color="#f6fcfe"/>
      <stop offset=".63" stop-color="#fdfefe"/>
      <stop offset="1" stop-color="#fff"/>
    </radialGradient>
    <filter id="outer-glow-1" filterUnits="userSpaceOnUse">
      <feOffset dx="0" dy="0"/>
      <feGaussianBlur result="blur" stdDeviation="2.83"/>
      <feFlood flood-color="#00b4ec" flood-opacity="1"/>
      <feComposite in2="blur" operator="in"/>
      <feComposite in="SourceGraphic"/>
    </filter>
    <radialGradient id="radial-gradient-2" cx="15.27" cy="46.91" fx="15.27" fy="46.91" r="3.53" gradientUnits="userSpaceOnUse">
      <stop offset=".3" stop-color="#fff"/>
      <stop offset=".64" stop-color="#81daf5"/>
      <stop offset="1" stop-color="#00b4ec"/>
    </radialGradient>
    <radialGradient id="radial-gradient-3" cx="15.27" cy="46.92" fx="15.27" fy="46.92" r="3.56" xlink:href="#radial-gradient-2"/>
    <radialGradient id="radial-gradient-4" cx="15.27" cy="46.91" fx="15.27" fy="46.91" r="3.56" xlink:href="#radial-gradient-2"/>
  </defs>
  <g class="cls-3">
    <g id="_레이어_2" data-name="레이어 2">
      <g id="Layer_1" data-name="Layer 1">
        <g>
          <circle class="cls-7" cx="15.27" cy="6.33" r="5.33"/>
          <line class="cls-7" x1="15.27" y1="15.02" x2="15.27" y2="25.9"/>
          <line class="cls-7" x1="20.61" y1="6.33" x2="29.43" y2="6.33"/>
          <line class="cls-7" x1="1" y1="6.33" x2="9.94" y2="6.33"/>
          <path class="cls-7" d="m9.29,41.67v-7.68c0-3.3,2.68-4.57,5.98-4.57h0c3.3,0,5.98,1.26,5.98,4.57v7.68"/>
          <path class="cls-7" d="m19.75,9.23h2.02c3.15,0,5.71,2.56,5.71,5.71v21.16c0,2.03-1.65,3.68-3.68,3.68"/>
          <path class="cls-7" d="m6.74,39.79c-2.03,0-3.68-1.65-3.68-3.68V14.94c0-3.15,2.56-5.71,5.71-5.71h2.02"/>
          <g>
            <path class="cls-4" d="m15.27,41.64c2.91,0,5.27,2.36,5.27,5.27s-2.36,5.27-5.27,5.27-5.27-2.36-5.27-5.27,2.36-5.27,5.27-5.27"/>
            <g class="cls-9">
              <path class="cls-5" d="m15.27,51.55c-1.35,0-1.85-2.77-1.85-4.63s.49-4.63,1.85-4.63,1.85,2.77,1.85,4.63-.49,4.63-1.85,4.63Zm0-8.43c-.29,0-1.01,1.33-1.01,3.8s.72,3.8,1.01,3.8,1.01-1.33,1.01-3.8-.72-3.8-1.01-3.8Z"/>
            </g>
            <path class="cls-8" d="m15.27,41.64c2.91,0,5.27,2.36,5.27,5.27s-2.36,5.27-5.27,5.27-5.27-2.36-5.27-5.27,2.36-5.27,5.27-5.27m0-1.07c-3.49,0-6.34,2.84-6.34,6.34s2.84,6.34,6.34,6.34,6.34-2.84,6.34-6.34-2.84-6.34-6.34-6.34h0Z"/>
            <g class="cls-9">
              <path class="cls-6" d="m18.05,49.78c-.24,0-.5-.03-.79-.09-.87-.17-1.91-.59-2.92-1.18-1.61-.93-3.77-2.74-3.09-3.92.14-.25.47-.54,1.21-.54.95,0,2.37.48,3.72,1.26,1.01.59,1.89,1.27,2.48,1.94.87,1,.81,1.62.61,1.98-.14.25-.47.54-1.23.54Zm-5.58-4.88c-.34,0-.47.08-.5.12-.04.06-.02.39.52,1,.52.6,1.33,1.23,2.27,1.77.93.54,1.88.92,2.66,1.08.24.05.45.07.64.07h0c.33,0,.47-.08.5-.13.04-.07.03-.39-.52-1.01-.53-.6-1.33-1.23-2.27-1.77-1.46-.85-2.66-1.15-3.3-1.15Z"/>
            </g>
            <g class="cls-9">
              <path class="cls-2" d="m12.47,49.77c-.75,0-1.07-.3-1.21-.54-.68-1.17,1.48-2.98,3.09-3.92,1.01-.59,2.05-1,2.92-1.18.29-.06.55-.09.79-.09.75,0,1.08.3,1.23.55.2.35.26.98-.61,1.98-.58.67-1.46,1.35-2.48,1.94-1.35.78-2.77,1.26-3.72,1.26Zm5.59-4.89c-.18,0-.4.02-.64.07-.78.16-1.73.54-2.66,1.08-2.14,1.23-2.93,2.52-2.78,2.78.02.04.16.12.5.12.64,0,1.84-.3,3.3-1.15.94-.54,1.74-1.17,2.27-1.77.54-.62.56-.94.52-1.01-.03-.05-.16-.13-.5-.13Z"/>
            </g>
            <circle class="cls-1" cx="15.27" cy="46.91" r=".8"/>
          </g>
        </g>
      </g>
    </g>
  </g>
</svg>