<?xml version="1.0" encoding="UTF-8"?>
<svg xmlns="http://www.w3.org/2000/svg" xmlns:xlink="http://www.w3.org/1999/xlink" viewBox="0 0 68.11 41.09">
  <defs>
    <style>
      .cls-1 {
        fill: #221e1f;
      }

      .cls-2 {
        fill: url(#radial-gradient-4);
      }

      .cls-3 {
        isolation: isolate;
      }

      .cls-4 {
        fill: url(#radial-gradient);
        filter: url(#outer-glow-1);
      }

      .cls-5 {
        fill: url(#radial-gradient-2);
      }

      .cls-6 {
        stroke-linejoin: round;
      }

      .cls-6, .cls-7 {
        fill: none;
        stroke: #221e1f;
        stroke-linecap: round;
        stroke-width: 2px;
      }

      .cls-8 {
        fill: url(#radial-gradient-3);
      }

      .cls-7 {
        stroke-miterlimit: 10;
      }

      .cls-9 {
        fill: #002a67;
      }

      .cls-10 {
        mix-blend-mode: multiply;
      }
    </style>
    <radialGradient id="radial-gradient" cx="49.27" cy="22.09" fx="49.27" fy="22.09" r="9.83" gradientUnits="userSpaceOnUse">
      <stop offset="0" stop-color="#00b4ec"/>
      <stop offset="0" stop-color="#09b6ec"/>
      <stop offset=".05" stop-color="#37c4f0"/>
      <stop offset=".09" stop-color="#62d0f3"/>
      <stop offset=".14" stop-color="#87dbf6"/>
      <stop offset=".2" stop-color="#a8e5f8"/>
      <stop offset=".25" stop-color="#c3edfa"/>
      <stop offset=".32" stop-color="#d9f4fc"/>
      <stop offset=".4" stop-color="#eaf8fd"/>
      <stop offset=".49" stop-color="#f6fcfe"/>
      <stop offset=".63" stop-color="#fdfefe"/>
      <stop offset="1" stop-color="#fff"/>
    </radialGradient>
    <filter id="outer-glow-1" filterUnits="userSpaceOnUse">
      <feOffset dx="0" dy="0"/>
      <feGaussianBlur result="blur" stdDeviation="2.83"/>
      <feFlood flood-color="#00b4ec" flood-opacity="1"/>
      <feComposite in2="blur" operator="in"/>
      <feComposite in="SourceGraphic"/>
    </filter>
    <radialGradient id="radial-gradient-2" cx="15.02" cy="-.93" fx="15.02" fy="-.93" r="5.63" gradientTransform="translate(32.33 23.14) scale(1.13)" gradientUnits="userSpaceOnUse">
      <stop offset=".3" stop-color="#fff"/>
      <stop offset=".64" stop-color="#81daf5"/>
      <stop offset="1" stop-color="#00b4ec"/>
    </radialGradient>
    <radialGradient id="radial-gradient-3" cx="15.02" cy="-.93" fx="15.02" fy="-.93" r="5.67" xlink:href="#radial-gradient-2"/>
    <radialGradient id="radial-gradient-4" cx="15.02" cy="-.94" fx="15.02" fy="-.94" r="5.67" xlink:href="#radial-gradient-2"/>
  </defs>
  <g class="cls-3">
    <g id="_레이어_2" data-name="레이어 2">
      <g id="Layer_1" data-name="Layer 1">
        <g>
          <path class="cls-7" d="m14.83,12.7c-.96-.28-1.97-.43-3.01-.43-5.97,0-10.81,4.84-10.81,10.81s4.84,10.81,10.81,10.81c4.74,0,8.76-3.05,10.22-7.28"/>
          <path class="cls-7" d="m22.4,20.87c-.38-1.82-1.22-3.47-2.38-4.82"/>
          <path class="cls-6" d="m45.9,7.79h0c1.71,0,3.1-1.39,3.1-3.1v-.59c0-1.71-1.39-3.1-3.1-3.1h-8.84l12.33,22.48"/>
          <line class="cls-7" x1="14.12" y1="1" x2="24.21" y2="1"/>
          <polyline class="cls-6" points="17.81 1 30.18 23.94 41.09 8.33 21.83 8.45 11.47 23.27 30.18 23.94"/>
          <g>
            <path class="cls-4" d="m49.27,12.26c5.43,0,9.83,4.4,9.83,9.83s-4.4,9.83-9.83,9.83-9.83-4.4-9.83-9.83,4.4-9.83,9.83-9.83"/>
            <g class="cls-10">
              <path class="cls-5" d="m49.27,30.48c-2.08,0-3.2-4.32-3.2-8.39s1.12-8.39,3.2-8.39,3.2,4.32,3.2,8.39-1.12,8.39-3.2,8.39Zm0-15.72c-.87,0-2.13,2.86-2.13,7.33s1.26,7.33,2.13,7.33,2.13-2.86,2.13-7.33-1.26-7.33-2.13-7.33Z"/>
            </g>
            <path class="cls-9" d="m49.27,12.26c5.43,0,9.83,4.4,9.83,9.83s-4.4,9.83-9.83,9.83-9.83-4.4-9.83-9.83,4.4-9.83,9.83-9.83m0-1.99c-6.51,0-11.81,5.3-11.81,11.81s5.3,11.81,11.81,11.81,11.81-5.3,11.81-11.81-5.3-11.81-11.81-11.81h0Z"/>
            <g class="cls-10">
              <path class="cls-8" d="m54.46,27.18c-.43,0-.91-.05-1.42-.16-1.59-.32-3.5-1.09-5.37-2.17-3.52-2.03-6.71-5.17-5.67-6.96.34-.59,1.03-.89,2.05-.89,1.73,0,4.34.89,6.81,2.32,1.87,1.08,3.49,2.34,4.56,3.57,1.2,1.36,1.59,2.57,1.11,3.4-.23.41-.79.89-2.08.89Zm-10.4-9.11c-.59,0-1.01.13-1.14.35-.43.75,1.41,3.28,5.28,5.51,1.77,1.02,3.56,1.75,5.04,2.04.46.09.88.14,1.23.14.59,0,1-.13,1.14-.36.18-.3,0-1.03-.99-2.17-1-1.14-2.52-2.33-4.29-3.35-2.77-1.6-5.06-2.17-6.27-2.17Z"/>
            </g>
            <g class="cls-10">
              <path class="cls-2" d="m44.05,27.17c-1.02,0-1.71-.3-2.05-.89-1.04-1.8,2.15-4.93,5.67-6.96,1.87-1.08,3.77-1.85,5.37-2.17.52-.1,1-.16,1.42-.16,1.29,0,1.84.49,2.08.89.48.83.08,2.04-1.11,3.4-1.07,1.22-2.69,2.49-4.56,3.56-2.47,1.43-5.08,2.32-6.81,2.32Zm10.42-9.11c-.36,0-.77.05-1.23.14-1.48.3-3.27,1.02-5.04,2.04-3.87,2.24-5.71,4.76-5.28,5.51.13.22.54.35,1.14.35,1.22,0,3.5-.57,6.28-2.17,1.77-1.02,3.29-2.21,4.29-3.34,1-1.14,1.17-1.86.99-2.17-.13-.23-.55-.36-1.14-.36Z"/>
            </g>
            <circle class="cls-1" cx="49.27" cy="22.09" r="1.49"/>
          </g>
        </g>
      </g>
    </g>
  </g>
</svg>