<?xml version="1.0" encoding="UTF-8"?>
<svg xmlns="http://www.w3.org/2000/svg" xmlns:xlink="http://www.w3.org/1999/xlink" viewBox="0 0 58.5 59.75">
  <defs>
    <style>
      .cls-1 {
        fill: #221e1f;
      }

      .cls-2 {
        fill: url(#radial-gradient-4);
      }

      .cls-3 {
        isolation: isolate;
      }

      .cls-4 {
        fill: url(#radial-gradient);
        filter: url(#outer-glow-1);
      }

      .cls-5 {
        fill: url(#radial-gradient-2);
      }

      .cls-6 {
        fill: url(#radial-gradient-3);
      }

      .cls-7 {
        fill: none;
        stroke: #221e1f;
        stroke-linecap: round;
        stroke-miterlimit: 10;
        stroke-width: 2px;
      }

      .cls-8 {
        fill: #002a67;
      }

      .cls-9 {
        mix-blend-mode: multiply;
      }
    </style>
    <radialGradient id="radial-gradient" cx="44.15" cy="46.2" fx="44.15" fy="46.2" r="4.95" gradientUnits="userSpaceOnUse">
      <stop offset="0" stop-color="#00b4ec"/>
      <stop offset="0" stop-color="#09b6ec"/>
      <stop offset=".05" stop-color="#37c4f0"/>
      <stop offset=".09" stop-color="#62d0f3"/>
      <stop offset=".14" stop-color="#87dbf6"/>
      <stop offset=".2" stop-color="#a8e5f8"/>
      <stop offset=".25" stop-color="#c3edfa"/>
      <stop offset=".32" stop-color="#d9f4fc"/>
      <stop offset=".4" stop-color="#eaf8fd"/>
      <stop offset=".49" stop-color="#f6fcfe"/>
      <stop offset=".63" stop-color="#fdfefe"/>
      <stop offset="1" stop-color="#fff"/>
    </radialGradient>
    <filter id="outer-glow-1" filterUnits="userSpaceOnUse">
      <feOffset dx="0" dy="0"/>
      <feGaussianBlur result="blur" stdDeviation="2.83"/>
      <feFlood flood-color="#00b4ec" flood-opacity="1"/>
      <feComposite in2="blur" operator="in"/>
      <feComposite in="SourceGraphic"/>
    </filter>
    <radialGradient id="radial-gradient-2" cx="44.15" cy="46.2" fx="44.15" fy="46.2" r="3.33" gradientUnits="userSpaceOnUse">
      <stop offset=".3" stop-color="#fff"/>
      <stop offset=".64" stop-color="#81daf5"/>
      <stop offset="1" stop-color="#00b4ec"/>
    </radialGradient>
    <radialGradient id="radial-gradient-3" cx="44.15" cy="46.2" fx="44.15" fy="46.2" r="3.36" xlink:href="#radial-gradient-2"/>
    <radialGradient id="radial-gradient-4" cx="44.15" cy="46.2" fx="44.15" fy="46.2" r="3.36" xlink:href="#radial-gradient-2"/>
  </defs>
  <g class="cls-3">
    <g id="_레이어_2" data-name="레이어 2">
      <g id="Layer_1" data-name="Layer 1">
        <g>
          <path class="cls-7" d="m18.64,1h7.71c1.36,0,2.47,1.11,2.47,2.47v7.86c0,1.36-1.11,2.47-2.47,2.47h-7.71V1h0Z"/>
          <path class="cls-7" d="m31.3,7.4h4.29c3.78,0,6.84,3.06,6.84,6.84h0"/>
          <path class="cls-7" d="m10.1,38.52h-.38c-4.82,0-8.72-3.9-8.72-8.72h0"/>
          <path class="cls-7" d="m1,29.8h0c0-4.82,3.9-8.72,8.72-8.72h25.86c3.78,0,6.84-3.06,6.84-6.84h0"/>
          <path class="cls-7" d="m14.24,46.2h-.87c-1.82,0-3.29-1.47-3.29-3.29v-7.94c0-5.46,4.43-9.89,9.89-9.89h16.55c.8,0,1.56.32,2.12.89l6.25,6.38c18.59,5.19,8.46,13.85,8.46,13.85h-1.04"/>
          <line class="cls-7" x1="24.13" y1="46.2" x2="39.21" y2="46.2"/>
          <line class="cls-7" x1="44.89" y1="32.35" x2="16.51" y2="32.35"/>
          <line class="cls-7" x1="27.34" y1="25.08" x2="27.34" y2="32.35"/>
          <circle class="cls-7" cx="19.19" cy="46.2" r="4.95"/>
          <line class="cls-7" x1="12.52" y1="4.23" x2="18.64" y2="4.23"/>
          <line class="cls-7" x1="12.52" y1="10.46" x2="18.64" y2="10.46"/>
          <g>
            <path class="cls-4" d="m44.15,41.25c2.73,0,4.95,2.21,4.95,4.95s-2.21,4.95-4.95,4.95-4.95-2.21-4.95-4.95,2.21-4.95,4.95-4.95"/>
            <g class="cls-9">
              <path class="cls-5" d="m44.15,50.56c-1.28,0-1.75-2.61-1.75-4.36s.47-4.36,1.75-4.36,1.75,2.61,1.75,4.36-.47,4.36-1.75,4.36Zm0-7.91c-.27,0-.93,1.24-.93,3.55s.66,3.55.93,3.55.93-1.24.93-3.55-.66-3.55-.93-3.55Z"/>
            </g>
            <path class="cls-8" d="m44.15,41.25c2.73,0,4.95,2.21,4.95,4.95s-2.21,4.95-4.95,4.95-4.95-2.21-4.95-4.95,2.21-4.95,4.95-4.95m0-1c-3.28,0-5.95,2.67-5.95,5.95s2.67,5.95,5.95,5.95,5.95-2.67,5.95-5.95-2.67-5.95-5.95-5.95h0Z"/>
            <g class="cls-9">
              <path class="cls-6" d="m46.76,48.9c-.22,0-.47-.03-.74-.08-.82-.16-1.79-.56-2.74-1.1-1.52-.88-3.55-2.59-2.91-3.7.14-.24.45-.52,1.15-.52.89,0,2.23.45,3.5,1.19.95.55,1.78,1.2,2.33,1.82.83.94.77,1.54.58,1.87-.14.24-.45.52-1.17.52Zm-5.23-4.58c-.32,0-.43.08-.45.11-.14.23.61,1.43,2.61,2.58.88.51,1.76.87,2.5,1.01.22.04.42.07.59.07.3,0,.43-.07.45-.11.03-.06.02-.36-.48-.93-.49-.56-1.25-1.15-2.12-1.65-1.37-.79-2.49-1.07-3.09-1.07Z"/>
            </g>
            <g class="cls-9">
              <path class="cls-2" d="m41.53,48.9c-.71,0-1.02-.28-1.16-.52-.64-1.11,1.39-2.82,2.91-3.7.95-.55,1.93-.94,2.74-1.1.27-.05.52-.08.74-.08.72,0,1.03.28,1.17.52.19.33.25.93-.58,1.87-.55.63-1.38,1.27-2.33,1.82-1.27.73-2.61,1.19-3.5,1.19Zm5.25-4.59c-.17,0-.37.02-.59.07-.73.15-1.62.51-2.49,1.01-2,1.15-2.74,2.35-2.61,2.58.02.03.13.11.45.11.59,0,1.72-.28,3.09-1.07.88-.51,1.63-1.09,2.12-1.65.5-.57.52-.87.48-.93-.02-.04-.15-.11-.45-.11Z"/>
            </g>
            <circle class="cls-1" cx="44.15" cy="46.2" r=".75"/>
          </g>
        </g>
      </g>
    </g>
  </g>
</svg>